<svg width="2820" height="2762" viewBox="0 0 2820 2762" fill="none" xmlns="http://www.w3.org/2000/svg">
<path d="M1578 2653.5C1841 2835.5 2117.5 2611.5 2255 2443C2392.5 2274.5 2328 2140 2308.5 2090.5C2289 2041 2159.5 1784 2159.5 1784" stroke="white" stroke-width="80" stroke-linecap="round"/>
<path d="M748 1859C634.356 1726.57 563.506 1643.8 486 1474" stroke="white" stroke-width="80" stroke-linecap="round"/>
<path d="M656 1040.5C656 1040.5 527.989 1146.69 493 1241.5C464.099 1319.82 432.709 1382.53 475 1454.5C503.489 1502.99 562.816 1518.04 615 1539C710.847 1577.49 898.893 1492.34 995 1454.5C1138.5 1398 1147.05 1385.96 1286 1304.5C1400.51 1237.36 1441.72 1191.32 1539 1101C1629.98 1016.52 1623 1013.5 1694 903.5C1727.84 851.067 1705 741.5 1649 697.5C1572.89 637.696 1505 628.5 1400 637.5C1332.33 643.3 1235 660 1177.5 690.5" stroke="white" stroke-width="80" stroke-linecap="round"/>
<path d="M1800.5 1029C1800.5 1035.8 2032.5 1259.5 1835.5 1405C1638.5 1550.5 1461.51 1760 1595.5 1881C1729.5 2002 2018 1906 2184 1405" stroke="white" stroke-width="80" stroke-linecap="round"/>
<path d="M535 1955.84C535 1955.84 556.5 2349.5 908.5 2065.5C1303.87 1746.51 967.295 1603 811 1770.34C761.499 1823.34 716.5 1932 716.5 1932" stroke="white" stroke-width="80" stroke-linecap="round"/>
<path d="M1222.5 2647.5C1222.5 2647.5 1314.5 2697.5 1403.5 2638C1441.24 2612.77 1655 2494 1478 2395" stroke="white" stroke-width="80" stroke-linecap="round"/>
<path d="M939 2509.5C939 2509.5 1075.23 2621.32 1263 2472.5C1357 2398 1474 2278 1332.5 2177" stroke="white" stroke-width="80" stroke-linecap="round"/>
<path d="M696 2285C696 2349 749.533 2383.39 873.5 2365.5C1161 2324 1356.5 2068 1159 1994.5" stroke="white" stroke-width="80" stroke-linecap="round"/>
<path d="M297 1476.5C297 1476.5 118.207 1523.26 82.6897 1639C67.1925 1689.5 59.6925 1733.5 88.6927 1771C143.965 1842.47 231.693 1771 263.193 1728C294.693 1685 311.19 1623 311.19 1623" stroke="white" stroke-width="80" stroke-linecap="round"/>
<path d="M40 414.5C40 414.5 104.5 548 197.5 656.5C290.5 765 362.5 554.5 452 591.5C541.5 628.5 649.853 803.359 694 873.5C736.499 941.023 765.639 975.529 816.5 1037C854.148 1082.5 917 1150 917 1150C917 1150 974.99 1201.26 1021 1213C1060.16 1223 1124.5 1213 1124.5 1213" stroke="white" stroke-width="80" stroke-linecap="round"/>
<path d="M73 41C73 41 119.888 200.478 198 261C235.622 290.15 324 370 442.5 244.5C561 119 795 594.5 795 594.5C795 594.5 878.183 744.294 957.5 817C1002.73 858.46 1045.5 909.5 1133.5 900C1221.5 890.5 1328.5 684 1426.5 1031.5" stroke="white" stroke-width="80" stroke-linecap="round"/>
<path d="M65.5 250.5C91.1976 304.089 108.087 331.956 151 370.5" stroke="white" stroke-width="50" stroke-linecap="round"/>
<path d="M276 523.5C312.112 488.698 333.216 475.202 373 466" stroke="white" stroke-width="50" stroke-linecap="round"/>
<path d="M516 437.5C560.882 472.53 581.809 495.929 610.5 545.5" stroke="white" stroke-width="50" stroke-linecap="round"/>
<path d="M709.5 696.5C722.113 723.199 794.72 833.668 815 849.5" stroke="white" stroke-width="50" stroke-linecap="round"/>
<path d="M929 966C971.93 1035.51 1021.72 1061.96 1049 1048.69" stroke="white" stroke-width="50" stroke-linecap="round"/>
<path d="M1195 1009.3C1233.04 1035.68 1249.73 1054.43 1268.76 1097.06" stroke="white" stroke-width="50" stroke-linecap="round"/>
<path d="M353.5 1114C353.5 1114 264.187 1052.79 199.5 1053C138.321 1053.2 70.5002 1062.5 53.0003 1108.5C35.5003 1154.5 88.0002 1242.5 325 1188" stroke="white" stroke-width="80" stroke-linecap="round"/>
<path d="M1470.5 506C1462 479 1446.38 439.356 1456 390C1506.5 131 1675.25 107.828 1717.5 112C1743.12 114.53 1761.69 114.9 1780 133C1798.75 151.534 1801.32 170.634 1801.5 197C1801.69 223.921 1792.94 238.891 1780 262.5C1764.64 290.528 1707.12 324.811 1679 340C1585.5 390.5 1557 466 1557 466" stroke="white" stroke-width="80" stroke-linecap="round"/>
<path d="M1968.5 1003C2049.5 1055.5 2071.97 1054.87 2152.5 1044.5C2202.72 1038.03 2262 1023 2313 983C2364 943 2404.5 864 2419 841.5C2433.5 819 2440.5 741 2451 702.5M1777.5 617C1787.38 572.2 1807.33 580.667 1838.5 560.5C1869.67 540.333 1904.16 530.5 1930 530.5C1955.83 530.5 2012 530.5 2012 530.5C2015.6 530.5 2052.74 532.994 2069 550C2081.08 562.64 2083.52 573.862 2087 591C2090.26 607.075 2092.95 617.717 2087 633C2078.94 653.687 2043 669 2043 669C2043 669 2011.43 684.95 1989.5 689C1966.65 693.219 1952.85 693.19 1930 689C1898.71 683.265 1763.3 681.312 1777.5 617Z" stroke="white" stroke-width="80" stroke-linecap="round"/>
<path d="M2385.5 1973C2385.5 1973 2462.67 1885.17 2490.5 1841C2518.33 1796.83 2619.5 1677 2619.5 1677C2619.5 1677 2769.5 1508.5 2780 1405.5" stroke="white" stroke-width="80" stroke-linecap="round"/>
</svg>
