<svg width="56" height="56" viewBox="0 0 56 56" fill="none" xmlns="http://www.w3.org/2000/svg">
<g clip-path="url(#clip0_138_37)">
<path d="M46.9002 30.7667C47.8621 29.2184 48.1706 27.3519 47.758 25.5764C47.3454 23.801 46.2454 22.2618 44.6994 21.2963L24.5401 8.73979C23.2299 7.92545 21.6839 7.57544 20.1506 7.74606C18.6174 7.91668 17.1862 8.59799 16.087 9.68045C14.9878 10.7629 14.2847 12.1836 14.0906 13.714C13.8965 15.2444 14.2228 16.7956 15.017 18.1182L8.33974 28.8384C7.90155 29.5419 7.76078 30.3906 7.94838 31.1979C8.13598 32.0052 8.6366 32.7049 9.34009 33.1431L29.4993 45.6996C30.2028 46.1378 31.0516 46.2786 31.8589 46.091C32.6662 45.9034 33.3659 45.4028 33.8041 44.6993L40.4813 33.9791C41.7433 34.0869 43.0106 33.8439 44.1433 33.2771C45.2759 32.7102 46.23 31.8415 46.9002 30.7667ZM17.8589 20.6485C18.2901 20.7422 18.7405 20.6807 19.1308 20.475C19.5212 20.2693 19.8265 19.9326 19.9931 19.524C20.1596 19.1154 20.1767 18.6611 20.0414 18.2411C19.9061 17.8212 19.6269 17.4624 19.2532 17.2279C18.5497 16.7897 18.049 16.09 17.8614 15.2827C17.6738 14.4754 17.8146 13.6267 18.2528 12.9232C18.691 12.2197 19.3907 11.7191 20.198 11.5315C21.0053 11.3439 21.854 11.4846 22.5575 11.9228L34.7592 19.5228C35.4627 19.961 35.9633 20.6607 36.1509 21.468C36.3385 22.2753 36.1977 23.1241 35.7595 23.8275C35.3213 24.531 34.6216 25.0317 33.8143 25.2193C33.0071 25.4069 32.1583 25.2661 31.4548 24.8279C31.0795 24.5958 30.6344 24.5035 30.1978 24.5672C29.7612 24.631 29.361 24.8466 29.0678 25.1763C28.7745 25.506 28.6068 25.9285 28.5944 26.3696C28.5819 26.8106 28.7253 27.242 28.9995 27.5877L22.9939 37.2296L11.8532 30.2905L17.8589 20.6485ZM39.4124 29.7844C39.0371 29.5524 38.592 29.4601 38.1554 29.5238C37.7188 29.5875 37.3186 29.8032 37.0254 30.1328C36.7321 30.4625 36.5644 30.885 36.552 31.3261C36.5395 31.7671 36.6829 32.1985 36.9571 32.5442L30.9515 42.1862L26.1769 39.2122L32.5237 29.0225C33.4232 29.1004 34.3291 29 35.1897 28.7272C36.0502 28.4543 36.8485 28.0144 37.5388 27.4325C38.229 26.8506 38.7977 26.1382 39.2121 25.3362C39.6266 24.5342 39.8788 23.6583 39.9542 22.7586L42.7168 24.4794C43.4203 24.9176 43.9209 25.6173 44.1085 26.4245C44.2961 27.2318 44.1553 28.0806 43.7171 28.7841C43.2789 29.4876 42.5792 29.9882 41.7719 30.1758C40.9647 30.3634 40.1159 30.2226 39.4124 29.7844Z" fill="#3D91FF"/>
</g>
<defs>
<clipPath id="clip0_138_37">
<rect width="40" height="40" fill="white" transform="translate(21.1479) rotate(31.9174)"/>
</clipPath>
</defs>
</svg>
