<svg width="49" height="49" viewBox="0 0 49 49" fill="none" xmlns="http://www.w3.org/2000/svg">
<g clip-path="url(#clip0_151_459)">
<path d="M35.0588 13.2366L7.86561 20.4161C7.38481 20.5431 6.97412 20.8558 6.7239 21.2856C6.47368 21.7153 6.40443 22.2268 6.53137 22.7076L8.44592 29.9592C9.45763 33.7681 11.8681 37.0556 15.1964 39.166L12.9711 39.7535C12.4903 39.8805 12.0796 40.1932 11.8294 40.6229C11.5791 41.0527 11.5099 41.5642 11.6368 42.045C11.7638 42.5258 12.0765 42.9365 12.5063 43.1867C12.936 43.437 13.4475 43.5062 13.9284 43.3793L40.5172 36.3593C40.9981 36.2323 41.4087 35.9196 41.659 35.4898C41.9092 35.0601 41.9784 34.5485 41.8515 34.0677C41.7245 33.5869 41.4118 33.1762 40.9821 32.926C40.5523 32.6758 40.0408 32.6066 39.56 32.7335L37.3347 33.321C38.2659 31.5703 38.858 29.6595 39.0798 27.6889C40.7961 27.1824 42.2472 26.0266 43.1249 24.4671C44.0026 22.9076 44.2377 21.0674 43.7801 19.3374L43.461 18.1288C42.9937 16.367 41.8467 14.8625 40.2715 13.9453C38.6963 13.0282 36.8217 12.7733 35.0588 13.2366ZM35.0348 22.9391C35.5938 25.0719 35.5502 27.3178 34.9088 29.4272C34.2675 31.5366 33.0535 33.4267 31.402 34.8874L21.129 37.5996C18.9718 37.1446 16.983 36.1001 15.384 34.5822C13.7849 33.0643 12.6383 31.1326 12.0717 29.0019L10.6358 23.5632L33.5989 17.5005L35.0348 22.9391ZM40.1544 20.2947C40.3131 20.8981 40.2875 21.5353 40.0809 22.1241C39.8744 22.7129 39.4962 23.2264 38.9953 23.5984C38.9131 23.0539 38.8014 22.5143 38.6606 21.9819L37.2917 16.797C37.8923 16.8899 38.4528 17.1559 38.9046 17.5625C39.3564 17.969 39.6798 18.4985 39.8353 19.0861L40.1544 20.2947ZM12.1874 14.7502L11.2302 11.1244C11.1032 10.6436 11.1725 10.1321 11.4227 9.70232C11.6729 9.27257 12.0836 8.95983 12.5644 8.83289C13.0452 8.70595 13.5567 8.7752 13.9865 9.02542C14.4162 9.27564 14.729 9.68632 14.8559 10.1671L15.8132 13.7929C15.9401 14.2737 15.8709 14.7852 15.6207 15.215C15.3704 15.6447 14.9598 15.9575 14.4789 16.0844C13.9981 16.2113 13.4866 16.1421 13.0569 15.8919C12.6271 15.6417 12.3144 15.231 12.1874 14.7502ZM18.2304 13.1547L17.2731 9.52895C17.1461 9.04814 17.2154 8.5366 17.4656 8.10686C17.7158 7.67712 18.1265 7.36437 18.6073 7.23743C19.0881 7.11049 19.5997 7.17974 20.0294 7.42996C20.4592 7.68018 20.7719 8.09087 20.8988 8.57167L21.8561 12.1974C21.9831 12.6782 21.9138 13.1898 21.6636 13.6195C21.4134 14.0493 21.0027 14.362 20.5219 14.4889C20.0411 14.6159 19.5295 14.5466 19.0998 14.2964C18.67 14.0462 18.3573 13.6355 18.2304 13.1547ZM24.2733 11.5592L23.316 7.93349C23.1891 7.45268 23.2583 6.94114 23.5086 6.5114C23.7588 6.08166 24.1695 5.76891 24.6503 5.64197C25.1311 5.51503 25.6426 5.58429 26.0723 5.83451C26.5021 6.08472 26.8148 6.49541 26.9418 6.97621L27.8991 10.602C28.026 11.0828 27.9567 11.5943 27.7065 12.0241C27.4563 12.4538 27.0456 12.7665 26.5648 12.8935C26.084 13.0204 25.5725 12.9512 25.1427 12.701C24.713 12.4507 24.4002 12.0401 24.2733 11.5592Z" fill="#3D91FF"/>
</g>
<defs>
<clipPath id="clip0_151_459">
<rect width="40" height="40" fill="white" transform="translate(0 10.2109) rotate(-14.7898)"/>
</clipPath>
</defs>
</svg>
