<svg width="44" height="44" viewBox="0 0 44 44" fill="none" xmlns="http://www.w3.org/2000/svg">
<path d="M26.2195 15.1023C26.5373 14.7234 26.9603 14.4473 27.435 14.3088C27.9097 14.1703 28.4149 14.1757 28.8865 14.3244C29.3582 14.473 29.7752 14.7582 30.0847 15.1439C30.3943 15.5296 30.5825 15.9984 30.6255 16.491C30.6686 16.9836 30.5646 17.478 30.3267 17.9115C30.0888 18.3451 29.7276 18.6983 29.2889 18.9265C28.8503 19.1548 28.3537 19.2478 27.8621 19.1938C27.3706 19.1398 26.9061 18.9413 26.5274 18.6233C26.0198 18.1971 25.7023 17.5868 25.6445 16.9265C25.5868 16.2663 25.7936 15.6102 26.2195 15.1023ZM26.1532 28.6941C26.5319 29.0122 26.9964 29.2107 27.488 29.2647C27.9795 29.3187 28.4761 29.2257 28.9148 28.9974C29.3535 28.7692 29.7146 28.4159 29.9525 27.9824C30.1904 27.5489 30.2944 27.0545 30.2514 26.5619C30.2083 26.0692 30.0201 25.6004 29.7105 25.2148C29.401 24.8291 28.984 24.5439 28.5124 24.3953C28.0407 24.2466 27.5356 24.2412 27.0608 24.3797C26.5861 24.5181 26.1631 24.7943 25.8453 25.1732C25.4194 25.681 25.2126 26.3372 25.2704 26.9974C25.3281 27.6576 25.6456 28.2679 26.1532 28.6941ZM20.7584 26.8728C20.3797 26.5548 19.9152 26.3562 19.4236 26.3022C18.932 26.2482 18.4355 26.3413 17.9968 26.5695C17.5581 26.7978 17.197 27.151 16.959 27.5845C16.7211 28.0181 16.6171 28.5124 16.6602 29.005C16.7033 29.4977 16.8915 29.9665 17.201 30.3522C17.5106 30.7378 17.9276 31.023 18.3992 31.1717C18.8709 31.3203 19.376 31.3257 19.8507 31.1873C20.3255 31.0488 20.7485 30.7726 21.0663 30.3937C21.4921 29.8859 21.6989 29.2297 21.6412 28.5695C21.5835 27.9093 21.2659 27.299 20.7584 26.8728ZM19.0746 19.4914C18.7566 19.8701 18.5581 20.3346 18.5041 20.8262C18.4501 21.3177 18.5431 21.8143 18.7714 22.253C18.9996 22.6917 19.3529 23.0528 19.7864 23.2907C20.2199 23.5286 20.7143 23.6326 21.2069 23.5896C21.6996 23.5465 22.1684 23.3583 22.554 23.0487C22.9397 22.7392 23.2249 22.3222 23.3735 21.8506C23.5222 21.3789 23.5276 20.8738 23.3891 20.399C23.2507 19.9243 22.9745 19.5013 22.5956 19.1835C22.0878 18.7576 21.4316 18.5508 20.7714 18.6086C20.1111 18.6663 19.5009 18.9838 19.0746 19.4914ZM20.1962 4.85524C23.5211 4.56452 26.8575 5.26626 29.7835 6.87173C32.7096 8.4772 35.0938 10.9143 36.6348 13.8748C38.1758 16.8353 38.8042 20.1863 38.4407 23.504C38.0772 26.8218 36.7381 29.9572 34.5926 32.5138C32.4471 35.0704 29.5917 36.9334 26.3874 37.8672C23.1832 38.801 19.774 38.7636 16.5909 37.7598C13.4079 36.756 10.594 34.8309 8.50505 32.2279C6.41612 29.6249 5.14599 26.4609 4.85526 23.136C4.81194 22.6406 4.96719 22.1483 5.28686 21.7674C5.60652 21.3865 6.06442 21.1482 6.55981 21.1048C8.04598 20.9749 9.41966 20.2599 10.3787 19.1171C11.3376 17.9743 11.8034 16.4974 11.6734 15.0112C11.6301 14.5158 11.7854 14.0235 12.105 13.6426C12.4247 13.2617 12.8826 13.0234 13.378 12.98C14.8642 12.8501 16.2378 12.1351 17.1968 10.9923C18.1558 9.84954 18.6216 8.37261 18.4916 6.88644C18.4483 6.39105 18.6036 5.89874 18.9232 5.51782C19.2429 5.1369 19.7008 4.89856 20.1962 4.85524ZM22.1897 8.55033C21.9555 10.3822 21.187 12.1045 19.9801 13.5024C18.7732 14.9002 17.1814 15.9116 15.4033 16.4104C15.221 18.2482 14.5016 19.9916 13.3347 21.423C12.1679 22.8544 10.6053 23.9105 8.84194 24.4594C9.36474 26.8566 10.549 29.0592 12.2603 30.8174C13.9716 32.5755 16.1415 33.8188 18.5237 34.4061C20.9059 34.9934 23.405 34.9013 25.7374 34.1401C28.0699 33.3789 30.1423 31.9792 31.7194 30.0998C33.2966 28.2204 34.3154 25.9365 34.6602 23.5073C35.0051 21.0782 34.6621 18.601 33.6703 16.3569C32.6784 14.1128 31.0774 12.1916 29.049 10.8114C27.0205 9.43121 24.6457 8.6472 22.1942 8.54836L22.1897 8.55033Z" fill="#3D91FF"/>
</svg>
