<svg width="394" height="375" viewBox="0 0 394 375" fill="none" xmlns="http://www.w3.org/2000/svg">
<path d="M249.588 248.58C252.543 252.031 254.411 256.283 254.955 260.8C255.499 265.316 254.695 269.894 252.644 273.953C250.594 278.012 247.389 281.371 243.435 283.604C239.481 285.838 234.956 286.846 230.432 286.5C225.908 286.155 221.588 284.472 218.019 281.664C214.45 278.856 211.792 275.05 210.381 270.726C208.971 266.403 208.871 261.757 210.094 257.375C211.317 252.993 213.809 249.074 217.254 246.111C221.871 242.141 227.87 240.171 233.933 240.634C239.996 241.097 245.627 243.955 249.588 248.58ZM126.646 227.66C123.201 230.623 120.709 234.543 119.486 238.924C118.262 243.306 118.362 247.952 119.773 252.276C121.184 256.599 123.841 260.406 127.41 263.213C130.979 266.021 135.299 267.704 139.823 268.05C144.347 268.395 148.873 267.387 152.826 265.154C156.78 262.92 159.985 259.561 162.036 255.502C164.086 251.443 164.891 246.866 164.346 242.349C163.802 237.833 161.935 233.58 158.979 230.129C155.019 225.504 149.388 222.646 143.325 222.183C137.262 221.72 131.262 223.69 126.646 227.66ZM151.196 181.411C154.641 178.449 157.133 174.529 158.356 170.148C159.58 165.766 159.48 161.12 158.069 156.796C156.659 152.473 154.001 148.666 150.432 145.858C146.863 143.051 142.543 141.368 138.019 141.022C133.495 140.677 128.97 141.685 125.016 143.918C121.062 146.152 117.857 149.51 115.806 153.57C113.756 157.629 112.952 162.206 113.496 166.723C114.04 171.239 115.907 175.492 118.863 178.943C122.823 183.568 128.454 186.426 134.517 186.889C140.58 187.352 146.58 185.382 151.196 181.411ZM220.534 177.161C217.581 173.708 213.672 171.211 209.303 169.986C204.934 168.761 200.3 168.864 195.987 170.28C191.675 171.696 187.878 174.363 185.076 177.942C182.274 181.522 180.594 185.854 180.248 190.391C179.901 194.927 180.905 199.464 183.13 203.428C185.356 207.391 188.705 210.603 192.752 212.658C196.8 214.712 201.364 215.517 205.869 214.969C210.374 214.422 214.616 212.547 218.059 209.583C222.673 205.61 225.525 199.962 225.99 193.883C226.454 187.803 224.491 181.788 220.534 177.161ZM351.353 209.22C349.015 239.836 337.676 269.074 318.77 293.236C299.863 317.397 274.237 335.398 245.134 344.961C216.03 354.524 184.756 355.219 155.265 346.96C125.775 338.701 99.3925 321.858 79.455 298.56C59.5175 275.263 46.92 246.558 43.2557 216.075C39.5914 185.592 45.0248 154.7 58.8687 127.307C72.7127 99.9127 94.3456 77.2469 121.032 62.1755C147.718 47.104 178.258 40.3038 208.792 42.6348C213.341 42.9821 217.566 45.1273 220.536 48.5985C223.507 52.0697 224.98 56.5826 224.632 61.1443C223.587 74.8294 228.007 88.3679 236.918 98.7815C245.83 109.195 258.504 115.631 272.152 116.673C276.701 117.02 280.926 119.165 283.897 122.636C286.867 126.108 288.34 130.62 287.992 135.182C286.947 148.867 291.367 162.406 300.279 172.819C309.191 183.233 321.865 189.669 335.513 190.711C340.062 191.058 344.287 193.203 347.257 196.674C350.228 200.145 351.701 204.658 351.353 209.22ZM314.923 221.793C298.69 216.929 284.247 207.378 273.397 194.333C262.546 181.288 255.769 165.326 253.912 148.439C237.547 144.038 222.84 134.901 211.626 122.169C200.412 109.437 193.187 93.6733 190.853 76.8461C168.371 78.0085 146.662 85.4662 128.188 98.3727C109.715 111.279 95.217 129.118 86.34 149.864C77.463 170.611 74.5622 193.435 77.9669 215.746C81.3716 238.056 90.9454 258.961 105.602 276.088C120.258 293.214 139.411 305.876 160.886 312.638C182.36 319.399 205.298 319.988 227.095 314.339C248.892 308.69 268.677 297.029 284.203 280.679C299.729 264.328 310.376 243.943 314.934 221.837L314.923 221.793Z" fill="white" fill-opacity="0.5"/>
</svg>
