<svg width="146" height="128" viewBox="0 0 146 128" fill="none" xmlns="http://www.w3.org/2000/svg">
<path d="M38.6754 109.881C50.2367 109.881 59.6089 104.47 59.6089 97.7955C59.6089 91.1207 50.2367 85.7096 38.6754 85.7096C27.1142 85.7096 17.7419 91.1207 17.7419 97.7955C17.7419 104.47 27.1142 109.881 38.6754 109.881Z" fill="#E0E0E0"/>
<path d="M87.9826 89.3071C99.5438 89.3071 108.916 83.896 108.916 77.2212C108.916 70.5464 99.5438 65.1353 87.9826 65.1353C76.4213 65.1353 67.0491 70.5464 67.0491 77.2212C67.0491 83.896 76.4213 89.3071 87.9826 89.3071Z" fill="#E0E0E0"/>
<path d="M105.062 111.776C119.451 111.776 131.117 105.041 131.117 96.7326C131.117 88.4242 119.451 81.6888 105.062 81.6888C90.6716 81.6888 79.0063 88.4242 79.0063 96.7326C79.0063 105.041 90.6716 111.776 105.062 111.776Z" fill="#E0E0E0"/>
<path d="M88.6717 47.2649C99.9217 47.2649 109.042 41.999 109.042 35.5032C109.042 29.0073 99.9217 23.7414 88.6717 23.7414C77.4217 23.7414 68.3018 29.0073 68.3018 35.5032C68.3018 41.999 77.4217 47.2649 88.6717 47.2649Z" fill="#BA68C8"/>
<path d="M103.368 14.4587C95.2505 9.78672 82.0929 9.78672 73.9783 14.4587C69.6362 16.967 67.6214 20.2987 67.9251 23.5896L72.3401 75.2882C72.5299 77.5482 74.1213 79.7791 77.1114 81.5078C83.4975 85.1928 93.8518 85.1928 100.241 81.5078C103.231 79.7791 104.822 77.5482 105.009 75.2882L109.427 23.5837C109.725 20.3075 107.71 16.967 103.368 14.4587Z" fill="#F0F0F0"/>
<path opacity="0.1" d="M67.9221 23.5896L72.3372 75.2882C72.4579 76.4955 72.9208 77.6433 73.6716 78.5965C74.61 79.7903 75.7788 80.7833 77.1084 81.5165C79.532 82.9152 82.528 83.7824 85.6611 84.1182C82.9776 82.8948 80.9424 80.9062 80.8373 77.6942C80.7672 75.5568 80.6358 71.6411 80.4752 67.0362C87.4336 69.0014 96.068 68.3181 101.853 64.9922C103.873 63.8242 105.33 62.4548 106.233 60.9948L107.935 41.0512C106.963 42.6922 105.345 44.231 103.079 45.5392C96.7863 49.1717 87.4014 49.9192 79.8124 47.811C79.7014 44.6223 79.4561 38.0202 79.2955 33.6782C77.4417 33.1497 75.6576 32.4017 73.9811 31.4502C70.2056 29.2456 68.1878 26.4395 67.9221 23.5896Z" fill="black"/>
<path d="M88.6718 34.9425C100.149 34.9425 109.453 29.5707 109.453 22.9442C109.453 16.3178 100.149 10.946 88.6718 10.946C77.1944 10.946 67.8901 16.3178 67.8901 22.9442C67.8901 29.5707 77.1944 34.9425 88.6718 34.9425Z" fill="#FAFAFA"/>
<path d="M88.6717 35.0418C83.331 35.0418 77.9903 33.8738 73.9228 31.5203C69.9633 29.2339 67.7908 26.1884 67.7908 22.9413C67.7908 19.6943 69.972 16.6516 73.9228 14.3653C82.0579 9.66992 95.2884 9.66992 103.415 14.3653C107.377 16.6516 109.547 19.6972 109.547 22.9413C109.547 26.1854 107.368 29.2339 103.415 31.5203C99.356 33.868 94.0241 35.0418 88.6717 35.0418ZM88.6717 11.0598C83.3719 11.0598 78.0692 12.2278 74.0337 14.5638C70.1443 16.8093 68.001 19.7877 68.001 22.9501C68.001 26.1124 70.1443 29.0821 74.0337 31.3392C82.1046 36.0112 95.2388 36.0112 103.313 31.3392C107.202 29.0938 109.342 26.1154 109.342 22.9501C109.342 19.7848 107.202 16.8181 103.313 14.5638C99.28 12.2249 93.9744 11.0598 88.6717 11.0598Z" fill="#E0E0E0"/>
<path d="M88.6716 33.8621C99.5668 33.8621 108.399 28.974 108.399 22.9442C108.399 16.9145 99.5668 12.0264 88.6716 12.0264C77.7764 12.0264 68.9441 16.9145 68.9441 22.9442C68.9441 28.974 77.7764 33.8621 88.6716 33.8621Z" fill="#E0E0E0"/>
<path d="M109.015 36.1105L107.293 56.1709C107.082 58.7522 105.269 61.2984 101.853 63.2724C94.5731 67.4742 82.7705 67.4742 75.4909 63.2724C71.8409 61.1641 70.0218 58.4018 70.0305 55.6395L68.3369 36.1923C68.6289 38.9692 70.5941 41.6994 74.2674 43.8193C82.2244 48.4096 95.1221 48.4096 103.076 43.8193C106.785 41.679 108.764 38.9166 109.013 36.1105H109.015Z" fill="#BA68C8"/>
<path opacity="0.2" d="M109.015 36.1105L107.293 56.1709C107.082 58.7522 105.269 61.2984 101.853 63.2724C94.5731 67.4742 82.7705 67.4742 75.4909 63.2724C71.8409 61.1641 70.0218 58.4018 70.0305 55.6395L68.3369 36.1923C68.6289 38.9692 70.5941 41.6994 74.2674 43.8193C82.2244 48.4096 95.1221 48.4096 103.076 43.8193C106.785 41.679 108.764 38.9166 109.013 36.1105H109.015Z" fill="white"/>
<path opacity="0.8" d="M80.7644 46.3393C78.4905 45.8105 76.3031 44.9621 74.2674 43.8193C70.594 41.6994 68.6201 38.9692 68.3281 36.1923L70.0217 55.6395C70.0217 58.4018 71.8321 61.1641 75.4821 63.2724C77.3473 64.3204 79.352 65.0981 81.436 65.5821L80.7644 46.3393Z" fill="#BA68C8"/>
<path d="M81.8037 53.3239C82.5551 52.6258 83.4227 52.0645 84.3675 51.6654C84.4549 51.6289 84.5301 51.5683 84.5843 51.4907C84.6386 51.4132 84.6697 51.3218 84.674 51.2272C84.6782 51.1326 84.6555 51.0388 84.6085 50.9566C84.5615 50.8744 84.4921 50.8073 84.4084 50.7631C82.5483 49.8433 79.9291 50.4536 78.0807 52.3866C76.1302 54.4306 75.7243 57.2338 76.9857 59.0238C77.0266 59.0769 77.0776 59.1214 77.1358 59.1547C77.1939 59.188 77.2581 59.2095 77.3246 59.2179C77.3911 59.2263 77.4586 59.2215 77.5232 59.2037C77.5878 59.1859 77.6483 59.1555 77.7011 59.1143C78.6969 58.3346 79.3334 57.4148 79.9875 55.9344C80.4087 54.9495 81.0267 54.0612 81.8037 53.3239ZM86.0173 52.3486C85.9536 52.2404 85.8527 52.1591 85.7334 52.1199C85.6141 52.0806 85.4846 52.0862 85.3691 52.1355C83.6253 52.8565 82.1955 54.1754 81.3365 55.8556C80.8723 56.7316 80.5657 57.7331 79.9846 58.5536C79.5796 59.1339 79.0598 59.6248 78.4574 59.9961C78.3757 60.0458 78.4078 60.2472 78.5129 60.2881C80.3613 61.094 82.8783 60.4604 84.6712 58.5858C86.4641 56.7111 86.9634 54.1415 86.0173 52.3486Z" fill="white"/>
<path opacity="0.8" d="M77.7011 59.1143C78.6969 58.3346 79.3334 57.4148 79.9875 55.9344C80.2661 55.3014 80.62 54.7043 81.0416 54.1561L80.9161 50.5996C79.8351 50.9461 78.8596 51.5609 78.0807 52.3866C76.1302 54.4306 75.7243 57.2338 76.9857 59.0238C77.0266 59.0769 77.0776 59.1214 77.1358 59.1547C77.1939 59.188 77.2581 59.2095 77.3246 59.2179C77.3911 59.2263 77.4586 59.2215 77.5232 59.2037C77.5878 59.1859 77.6483 59.1555 77.7011 59.1143Z" fill="#E6E6E6"/>
<path opacity="0.8" d="M81.1176 56.3023C80.8078 57.085 80.4286 57.8385 79.9847 58.5536C79.5797 59.1339 79.0599 59.6248 78.4575 59.9961C78.3757 60.0458 78.4079 60.2472 78.513 60.2881C79.385 60.6472 80.3465 60.7287 81.2665 60.5217L81.1176 56.3023Z" fill="#E6E6E6"/>
<path d="M74.46 15.4282C78.2326 13.2323 83.2813 12.0264 88.6687 12.0264C94.0561 12.0264 99.1077 13.2323 102.883 15.4282C106.437 17.4926 108.396 20.1615 108.396 22.9442C108.394 23.7456 108.237 24.539 107.932 25.2802C107.158 23.3589 105.429 21.5689 102.883 20.0885C99.1077 17.8956 94.059 16.6867 88.6687 16.6867C83.2784 16.6867 78.2326 17.8839 74.46 20.0768C71.9108 21.5572 70.1851 23.3472 69.4084 25.2686C69.1037 24.5273 68.946 23.734 68.9441 22.9326C68.9441 20.1644 70.9034 17.4926 74.46 15.4282Z" fill="#EBEBEB"/>
<path d="M88.6687 12.0264C94.0591 12.0264 99.1077 13.2323 102.883 15.4282C106.437 17.4926 108.396 20.1615 108.396 22.9442C108.394 23.7456 108.237 24.539 107.932 25.2802C107.158 23.3589 105.43 21.5689 102.883 20.0885C99.1077 17.8956 94.0591 16.6867 88.6687 16.6867C88.3329 16.6867 87.9971 16.6867 87.6643 16.6867C88.9607 16.6867 91.6939 16.0151 90.7741 14.231C89.8134 12.3651 87.3781 12.041 85.5911 12.1578C86.5985 12.076 87.6292 12.0264 88.6687 12.0264Z" fill="#E0E0E0"/>
<path d="M68.9441 22.9442C68.9441 20.4885 70.4742 18.1175 73.2832 16.1757C71.9663 17.7116 72.6992 20.4622 75.552 19.487H75.5754C75.1929 19.6768 74.8191 19.8753 74.46 20.071C71.9108 21.5514 70.1851 23.3414 69.4084 25.2627C69.1059 24.527 68.9482 23.7397 68.9441 22.9442Z" fill="#E0E0E0"/>
<path d="M74.46 20.0768C78.2327 17.8839 83.2814 16.675 88.6688 16.675C94.0562 16.675 99.1078 17.8839 102.883 20.0768C105.43 21.5572 107.158 23.3472 107.932 25.2686C107.155 27.187 105.43 28.9799 102.88 30.4574C99.1078 32.6532 94.0591 33.8592 88.6688 33.8592C83.2784 33.8592 78.2327 32.6532 74.46 30.472C71.9109 28.9945 70.1852 27.2016 69.4084 25.2832C70.1852 23.3472 71.9109 21.5572 74.46 20.0768Z" fill="#37474F"/>
<path d="M91.1245 16.7626C91.3867 16.9145 91.605 17.1318 91.7581 17.3933C92.0239 17.8576 91.7319 18.4328 92.0034 18.8942C92.1349 19.1263 92.3139 19.3279 92.5288 19.4859C92.7437 19.644 92.9896 19.7548 93.2503 19.8111C93.9598 19.9746 95.0285 20.1031 95.8578 20.798C96.0533 20.9682 96.1893 21.1963 96.2462 21.4492C96.2727 21.6522 96.2563 21.8584 96.1979 22.0546C96.1396 22.2508 96.0406 22.4325 95.9075 22.588C95.6622 22.9121 95.3498 23.172 95.1132 23.5166C94.9811 23.6734 94.8861 23.8581 94.8355 24.0568C94.785 24.2556 94.7801 24.4632 94.8212 24.6641C94.9588 25.0127 95.2153 25.3013 95.5454 25.4788C96.7601 26.2614 98.2318 26.5855 99.391 27.444C99.734 27.6715 100.007 27.99 100.179 28.3638C100.279 28.6655 100.299 28.9882 100.235 29.2997C100.172 29.6112 100.028 29.9006 99.8173 30.1391C99.5779 30.4311 99.1983 30.8341 97.9953 31.1757C97.5719 31.2984 97.1543 31.4298 96.7221 31.5203C95.4724 31.7831 93.9744 33.0007 92.8415 33.6081C96.6375 33.1526 100.098 32.0722 102.875 30.4574C105.424 28.9799 107.149 27.187 107.926 25.2686C107.152 23.3472 105.424 21.5572 102.878 20.0768C99.686 18.208 95.5775 17.0721 91.1245 16.7626ZM103.097 26.1066C103.145 26.0822 103.198 26.0695 103.253 26.0695C103.307 26.0695 103.36 26.0822 103.409 26.1066C103.428 26.1134 103.444 26.1257 103.455 26.1419C103.466 26.1581 103.472 26.1774 103.472 26.1971C103.472 26.2169 103.466 26.2362 103.455 26.2524C103.444 26.2685 103.428 26.2809 103.409 26.2876C103.361 26.3135 103.307 26.327 103.253 26.327C103.198 26.327 103.145 26.3135 103.097 26.2876C103.079 26.2798 103.064 26.267 103.054 26.2508C103.044 26.2346 103.039 26.2157 103.04 26.1966C103.04 26.1775 103.047 26.1591 103.058 26.1436C103.069 26.1281 103.084 26.1162 103.102 26.1095L103.097 26.1066ZM101.12 28.5915C101.271 28.5153 101.438 28.4756 101.607 28.4756C101.777 28.4756 101.944 28.5153 102.095 28.5915C102.158 28.6073 102.214 28.6438 102.254 28.6951C102.294 28.7464 102.316 28.8097 102.316 28.8748C102.316 28.9398 102.294 29.0031 102.254 29.0544C102.214 29.1057 102.158 29.1422 102.095 29.158C101.944 29.2356 101.777 29.2761 101.607 29.2761C101.438 29.2761 101.27 29.2356 101.12 29.158C101.058 29.1406 101.004 29.1033 100.965 29.052C100.927 29.0006 100.906 28.9381 100.907 28.874C100.908 28.8099 100.93 28.7478 100.969 28.6972C101.008 28.6467 101.063 28.6106 101.126 28.5944L101.12 28.5915ZM100.699 27.698C100.747 27.6722 100.801 27.6587 100.855 27.6587C100.91 27.6587 100.964 27.6722 101.012 27.698C101.03 27.7048 101.046 27.7171 101.058 27.7333C101.069 27.7495 101.075 27.7688 101.075 27.7885C101.075 27.8083 101.069 27.8276 101.058 27.8438C101.046 27.8599 101.03 27.8723 101.012 27.879C100.963 27.9034 100.91 27.9161 100.855 27.9161C100.801 27.9161 100.748 27.9034 100.699 27.879C100.682 27.8712 100.667 27.8584 100.657 27.8422C100.647 27.8259 100.642 27.8071 100.642 27.788C100.643 27.7689 100.649 27.7505 100.661 27.735C100.672 27.7195 100.687 27.7076 100.705 27.7009L100.699 27.698ZM100.498 24.8977C100.736 24.7755 101.001 24.7117 101.269 24.7117C101.537 24.7117 101.801 24.7755 102.039 24.8977C102.466 25.1459 102.466 25.546 102.039 25.7912C101.801 25.9135 101.537 25.9772 101.269 25.9772C101.001 25.9772 100.736 25.9135 100.498 25.7912C100.08 25.5489 100.08 25.1488 100.504 24.9006L100.498 24.8977ZM97.2361 21.0024C97.1591 21.0412 97.0741 21.0614 96.9879 21.0614C96.9017 21.0614 96.8167 21.0412 96.7397 21.0024C96.7079 20.9934 96.68 20.9742 96.6602 20.9479C96.6403 20.9215 96.6295 20.8894 96.6295 20.8564C96.6295 20.8234 96.6403 20.7913 96.6602 20.765C96.68 20.7387 96.7079 20.7195 96.7397 20.7104C96.8167 20.6717 96.9017 20.6515 96.9879 20.6515C97.0741 20.6515 97.1591 20.6717 97.2361 20.7104C97.2678 20.7195 97.2957 20.7387 97.3156 20.765C97.3355 20.7913 97.3462 20.8234 97.3462 20.8564C97.3462 20.8894 97.3355 20.9215 97.3156 20.9479C97.2957 20.9742 97.2678 20.9934 97.2361 21.0024ZM97.9544 22.5092C97.5281 22.261 97.5281 21.8609 97.9544 21.6127C98.193 21.4905 98.4572 21.4267 98.7253 21.4267C98.9933 21.4267 99.2576 21.4905 99.4961 21.6127C99.9225 21.8609 99.9225 22.261 99.4961 22.5092C99.2583 22.6304 98.9951 22.6936 98.7282 22.6936C98.4612 22.6936 98.1981 22.6304 97.9602 22.5092H97.9544ZM98.4771 25.6073C98.5541 25.5685 98.6391 25.5483 98.7253 25.5483C98.8115 25.5483 98.8965 25.5685 98.9735 25.6073C99.1107 25.6861 99.1107 25.8146 98.9735 25.8993C98.8965 25.938 98.8115 25.9582 98.7253 25.9582C98.6391 25.9582 98.5541 25.938 98.4771 25.8993C98.3457 25.8146 98.3457 25.6861 98.4829 25.6073H98.4771ZM98.0099 23.6801C98.4946 23.9721 98.4946 24.4188 98.0099 24.7021C97.7385 24.8403 97.4384 24.9123 97.1339 24.9123C96.8294 24.9123 96.5292 24.8403 96.2579 24.7021C95.7702 24.4101 95.7702 23.9604 96.2579 23.6801C96.5299 23.5409 96.8312 23.4683 97.1368 23.4683C97.4424 23.4683 97.7436 23.5409 98.0157 23.6801H98.0099ZM94.6343 19.3001C94.6828 19.2757 94.7363 19.263 94.7906 19.263C94.8448 19.263 94.8983 19.2757 94.9468 19.3001C95.0344 19.3497 95.0344 19.4315 94.9468 19.484C94.8983 19.5084 94.8448 19.5211 94.7906 19.5211C94.7363 19.5211 94.6828 19.5084 94.6343 19.484C94.5526 19.4227 94.5526 19.341 94.6402 19.2913L94.6343 19.3001Z" fill="#455A64"/>
<path d="M69.4084 25.2686C70.1852 27.187 71.9109 28.9799 74.46 30.4574C77.7655 32.3817 82.0521 33.5468 86.689 33.8037L86.1985 33.5526C85.1881 33.0445 84.1282 32.5627 82.9865 32.5014C82.1105 32.4518 81.0709 32.6007 80.4986 31.9174C80.2475 31.6254 80.1511 31.2195 79.9146 30.91C79.6204 30.5774 79.2293 30.3455 78.7963 30.2472C77.6808 29.923 76.4895 29.999 75.339 29.8384C75.0295 29.7946 74.6761 29.7011 74.5506 29.412C74.425 29.123 74.6002 28.793 74.8017 28.5536C75.0423 28.3473 75.2263 28.0829 75.336 27.7856C75.412 27.3797 75.1317 26.9943 74.828 26.7198C74.4922 26.4866 74.2063 26.1888 73.987 25.8438C73.8874 25.5807 73.862 25.2954 73.9135 25.0189C73.965 24.7424 74.0914 24.4853 74.279 24.2758C74.6603 23.8646 75.1086 23.521 75.6047 23.2596C76.5136 22.7243 77.3582 22.0865 78.1217 21.3587C78.6211 20.8623 79.0824 20.0914 78.7057 19.4957C78.5299 19.2583 78.2852 19.0809 78.0049 18.9876C77.7563 18.8859 77.4994 18.8058 77.237 18.7482C76.2806 19.1237 75.3525 19.5677 74.46 20.0768C71.9109 21.5572 70.1852 23.3472 69.4084 25.2686ZM76.0573 19.8403C76.2959 19.7181 76.5601 19.6543 76.8282 19.6543C77.0962 19.6543 77.3605 19.7181 77.599 19.8403C78.0224 20.0856 78.0254 20.4885 77.599 20.7338C77.3605 20.856 77.0962 20.9198 76.8282 20.9198C76.5601 20.9198 76.2959 20.856 76.0573 20.7338C75.628 20.4885 75.628 20.0856 76.0573 19.8403ZM74.7696 21.5164C74.8999 21.4502 75.0439 21.4157 75.19 21.4157C75.3362 21.4157 75.4802 21.4502 75.6105 21.5164C75.6617 21.5334 75.7063 21.5661 75.7378 21.6099C75.7694 21.6536 75.7864 21.7062 75.7864 21.7602C75.7864 21.8141 75.7694 21.8667 75.7378 21.9105C75.7063 21.9542 75.6617 21.987 75.6105 22.004C75.4807 22.0716 75.3364 22.1068 75.19 22.1068C75.0437 22.1068 74.8994 22.0716 74.7696 22.004C74.7184 21.987 74.6738 21.9542 74.6423 21.9105C74.6107 21.8667 74.5937 21.8141 74.5937 21.7602C74.5937 21.7062 74.6107 21.6536 74.6423 21.6099C74.6738 21.5661 74.7184 21.5334 74.7696 21.5164ZM77.9319 30.9304C78.079 30.8542 78.2422 30.8143 78.4079 30.8143C78.5736 30.8143 78.7368 30.8542 78.8838 30.9304C78.9412 30.9503 78.991 30.9875 79.0262 31.037C79.0614 31.0865 79.0803 31.1457 79.0803 31.2064C79.0803 31.2671 79.0614 31.3263 79.0262 31.3758C78.991 31.4252 78.9412 31.4625 78.8838 31.4823C78.7364 31.5572 78.5733 31.5962 78.4079 31.5962C78.2425 31.5962 78.0794 31.5572 77.9319 31.4823C77.8746 31.4625 77.8248 31.4252 77.7896 31.3758C77.7544 31.3263 77.7354 31.2671 77.7354 31.2064C77.7354 31.1457 77.7544 31.0865 77.7896 31.037C77.8248 30.9875 77.8746 30.9503 77.9319 30.9304ZM76.7815 30.656C76.8665 30.6129 76.9606 30.5904 77.0559 30.5904C77.1513 30.5904 77.2453 30.6129 77.3304 30.656C77.3631 30.6679 77.3913 30.6895 77.4112 30.718C77.4311 30.7464 77.4418 30.7803 77.4418 30.8151C77.4418 30.8499 77.4311 30.8838 77.4112 30.9122C77.3913 30.9407 77.3631 30.9623 77.3304 30.9742C77.2453 31.0173 77.1513 31.0398 77.0559 31.0398C76.9606 31.0398 76.8665 31.0173 76.7815 30.9742C76.7493 30.9609 76.722 30.938 76.7033 30.9086C76.6846 30.8792 76.6754 30.8448 76.677 30.81C76.6786 30.7752 76.6909 30.7417 76.7122 30.7142C76.7335 30.6866 76.7628 30.6663 76.796 30.656H76.7815ZM72.8015 25.9548C72.7326 25.9908 72.6559 26.0097 72.5781 26.0097C72.5003 26.0097 72.4237 25.9908 72.3547 25.9548C72.2292 25.8818 72.2292 25.765 72.3547 25.6949C72.4237 25.6588 72.5003 25.64 72.5781 25.64C72.6559 25.64 72.7326 25.6588 72.8015 25.6949C72.9271 25.765 72.9271 25.8818 72.8015 25.9548ZM72.1445 27.076C72.4562 26.9178 72.8008 26.8353 73.1504 26.8353C73.5 26.8353 73.8447 26.9178 74.1564 27.076C74.7141 27.4002 74.7141 27.9228 74.1564 28.244C73.8447 28.4023 73.5 28.4848 73.1504 28.4848C72.8008 28.4848 72.4562 28.4023 72.1445 28.244C71.5897 27.9228 71.5897 27.4002 72.1445 27.076ZM71.4291 23.864C71.6003 23.7762 71.79 23.7303 71.9824 23.7303C72.1749 23.7303 72.3646 23.7762 72.5358 23.864C72.6031 23.8866 72.6617 23.9297 72.7032 23.9874C72.7446 24.045 72.767 24.1142 72.767 24.1852C72.767 24.2563 72.7446 24.3255 72.7032 24.3831C72.6617 24.4408 72.6031 24.4839 72.5358 24.5064C72.3646 24.5943 72.1749 24.6402 71.9824 24.6402C71.79 24.6402 71.6003 24.5943 71.4291 24.5064C71.3611 24.4838 71.3019 24.4403 71.2599 24.3821C71.218 24.3239 71.1955 24.254 71.1955 24.1823C71.1955 24.1106 71.218 24.0407 71.2599 23.9825C71.3019 23.9244 71.3611 23.8809 71.4291 23.8582V23.864ZM70.2786 24.5736C70.348 24.5391 70.4245 24.5212 70.502 24.5212C70.5795 24.5212 70.656 24.5391 70.7254 24.5736C70.7522 24.5836 70.7753 24.6015 70.7917 24.625C70.808 24.6485 70.8168 24.6764 70.8168 24.705C70.8168 24.7336 70.808 24.7615 70.7917 24.785C70.7753 24.8085 70.7522 24.8264 70.7254 24.8364C70.656 24.8709 70.5795 24.8888 70.502 24.8888C70.4245 24.8888 70.348 24.8709 70.2786 24.8364C70.2497 24.8278 70.2243 24.81 70.2063 24.7858C70.1882 24.7616 70.1785 24.7323 70.1785 24.7021C70.1785 24.6719 70.1882 24.6425 70.2063 24.6183C70.2243 24.5941 70.2497 24.5764 70.2786 24.5678V24.5736Z" fill="#455A64"/>
<path opacity="0.1" d="M91.4458 16.786C95.7762 17.1276 99.7649 18.2664 102.883 20.0768C105.43 21.5572 107.158 23.3472 107.932 25.2686C107.155 27.187 105.43 28.9799 102.881 30.4574C101.907 31.0229 100.891 31.5111 99.8408 31.9174C101.926 30.7144 104.028 28.901 104.037 26.4804C104.051 21.677 98.2757 17.5393 91.4458 16.786Z" fill="black"/>
<path d="M88.4584 80.8595C97.5104 75.6298 112.204 75.6298 121.265 80.8595C125.791 83.4729 128.054 86.8981 128.057 90.3232C128.057 91.0007 128.057 93.7163 128.057 94.4112C128.042 97.8276 125.779 101.241 121.265 103.849C112.213 109.078 97.5163 109.078 88.4584 103.849C83.9266 101.221 81.6636 97.8014 81.6665 94.3733V90.332C81.6607 86.9068 83.9237 83.4758 88.4584 80.8595Z" fill="#37474F"/>
<path d="M114.137 78.068C116.631 78.6709 119.029 79.6151 121.265 80.8741C125.791 83.4875 128.054 86.9127 128.057 90.3378C128.057 91.0153 128.057 93.7309 128.057 94.4258C128.042 97.8422 125.779 101.256 121.265 103.863C119.029 105.121 116.63 106.065 114.137 106.669V78.068Z" fill="#263238"/>
<path d="M104.86 103.723C117.673 103.723 128.059 97.7264 128.059 90.3291C128.059 82.9318 117.673 76.935 104.86 76.935C92.0474 76.935 81.6606 82.9318 81.6606 90.3291C81.6606 97.7264 92.0474 103.723 104.86 103.723Z" fill="#455A64"/>
<path d="M84.1164 88.872L84.8785 82.0158C85.1705 79.4404 87.1036 76.9088 90.701 74.9407C98.5208 70.6658 111.199 70.6658 119.025 74.9407C122.622 76.9088 124.573 79.4404 124.847 82.0158L125.624 88.872C125.96 91.9614 123.971 95.112 119.653 97.4743C111.637 101.854 98.109 101.854 90.0936 97.4743C85.7691 95.1091 83.7835 91.9584 84.1164 88.872Z" fill="#37474F"/>
<path d="M119.019 74.9378C122.617 76.9058 124.567 79.4375 124.842 82.0129L125.624 88.872C125.96 91.9614 123.971 95.112 119.653 97.4743C117.909 98.4053 116.059 99.122 114.143 99.6088L113.658 91.4562L112.7 72.6076C114.902 73.096 117.027 73.8798 119.019 74.9378Z" fill="#263238"/>
<path d="M104.86 93.6345C115.918 93.6345 124.883 88.7307 124.883 82.6816C124.883 76.6325 115.918 71.7287 104.86 71.7287C93.802 71.7287 84.8376 76.6325 84.8376 82.6816C84.8376 88.7307 93.802 93.6345 104.86 93.6345Z" fill="#455A64"/>
<path d="M104.86 91.2752C114.392 91.2752 122.12 87.4277 122.12 82.6816C122.12 77.9355 114.392 74.088 104.86 74.088C95.3275 74.088 87.5999 77.9355 87.5999 82.6816C87.5999 87.4277 95.3275 91.2752 104.86 91.2752Z" fill="#263238"/>
<path d="M92.6573 81.0639C99.3967 77.7059 110.323 77.7059 117.066 81.0639C119.285 82.1677 120.771 83.5021 121.527 84.9125C120.771 86.3199 119.285 87.6544 117.066 88.7581C110.326 92.1161 99.3967 92.1161 92.6573 88.7581C90.4352 87.6544 88.9518 86.3199 88.1956 84.9125C88.9518 83.5021 90.4352 82.156 92.6573 81.0639Z" fill="#455A64"/>
<path d="M90.228 79.0491L110.566 90.7934C112.818 90.4251 115.006 89.7368 117.063 88.7494C120.193 87.193 121.872 85.1811 122.094 83.14C121.875 81.096 120.196 79.09 117.063 77.5278C110.323 74.1727 99.3968 74.1727 92.6545 77.5278C91.7955 77.9501 90.9824 78.4599 90.228 79.0491Z" fill="#455A64"/>
<path d="M88.9548 83.797L101.642 91.1262C104.619 91.4053 107.619 91.2934 110.566 90.7934L90.2279 79.0491L88.9548 83.797Z" fill="#37474F"/>
<path opacity="0.5" d="M89.4132 88.9187L92.3332 90.6123C92.5046 90.6901 92.6919 90.7266 92.88 90.719C93.0681 90.7114 93.2519 90.6599 93.4165 90.5685C93.7348 90.3816 93.7698 90.1042 93.4924 89.9436L90.5724 88.25C90.4014 88.1723 90.2146 88.1358 90.027 88.1434C89.8393 88.151 89.6561 88.2025 89.492 88.2938C89.1708 88.4807 89.1358 88.7581 89.4132 88.9187Z" fill="black"/>
<path d="M87.6321 83.1838C88.2686 86.8952 92.3975 88.7552 95.6095 89.8181C102.702 91.9876 113.086 91.6927 119.282 87.2894C121.568 85.622 122.987 82.9094 121.408 80.2376C123.075 82.9035 121.7 85.7096 119.396 87.4383C113.214 91.9935 102.673 92.3118 95.5424 90.0312C92.2836 88.9041 88.1986 86.9769 87.6321 83.1838Z" fill="#37474F"/>
<path d="M38.6785 68.1283C49.9285 68.1283 59.0484 62.8624 59.0484 56.3666C59.0484 49.8707 49.9285 44.6048 38.6785 44.6048C27.4285 44.6048 18.3086 49.8707 18.3086 56.3666C18.3086 62.8624 27.4285 68.1283 38.6785 68.1283Z" fill="#263238"/>
<path d="M53.3717 35.3221C45.257 30.6501 32.0995 30.6501 23.9819 35.3221C19.6399 37.8275 17.6251 41.1621 17.9288 44.45L22.3409 96.1516C22.5278 98.4146 24.1192 100.643 27.1092 102.371C33.4982 106.059 43.8525 106.059 50.2386 102.371C53.2286 100.643 54.82 98.4146 55.0098 96.1516L59.4249 44.4471C59.7286 41.1709 57.7138 37.8304 53.3717 35.3221Z" fill="#F0F0F0"/>
<path opacity="0.1" d="M53.3718 35.3221C46.682 31.4619 36.573 30.7874 28.6802 33.2781C28.0174 33.4884 27.375 33.719 26.7472 33.9731L26.5516 34.0519L26.1282 34.2359L25.7632 34.3994L25.4157 34.5629C25.2638 34.633 25.1237 34.7089 24.966 34.7848L24.7003 34.9192C24.4638 35.0447 24.2272 35.1732 23.9966 35.3075C19.6545 37.8129 17.6397 41.1475 17.9434 44.4354L22.3409 96.1516C22.5278 98.4146 24.1192 100.643 27.1093 102.371C29.5329 103.77 32.5288 104.637 35.6649 104.976C32.9814 103.749 30.9462 101.764 30.841 98.5518C30.771 96.4144 30.6366 92.4986 30.479 87.8938C37.4373 89.859 46.0718 89.1757 51.8534 85.8498C53.8769 84.6818 55.334 83.3123 56.2334 81.8552L57.9357 61.9087C56.9604 63.5498 55.3428 65.0886 53.0768 66.3968C46.7842 70.0292 37.3994 70.7768 29.8132 68.6714C29.6555 64.1338 29.5212 60.3202 29.4511 58.3142C37.9191 60.4341 48.1391 59.4822 55.077 55.4964C56.4008 54.7479 57.6235 53.8334 58.7154 52.775L59.4249 44.4705C59.7286 41.1709 57.7138 37.8304 53.3718 35.3221Z" fill="black"/>
<path d="M38.6784 55.8059C50.1558 55.8059 59.46 50.4341 59.46 43.8076C59.46 37.1812 50.1558 31.8094 38.6784 31.8094C27.201 31.8094 17.8967 37.1812 17.8967 43.8076C17.8967 50.4341 27.201 55.8059 38.6784 55.8059Z" fill="#E0E0E0"/>
<path d="M55.08 29.8588C46.028 24.6291 31.3346 24.6291 22.2738 29.8588C17.7478 32.4722 15.4761 35.8974 15.4761 39.3225C15.4761 40 15.4761 42.7185 15.4761 43.4105C15.4761 46.8269 17.7537 50.2404 22.268 52.845C31.32 58.0777 46.0164 58.0777 55.0742 52.845C59.606 50.217 61.869 46.8006 61.8661 43.3696V39.34C61.8778 35.909 59.6148 32.478 55.08 29.8588Z" fill="#BA68C8"/>
<path opacity="0.2" d="M55.08 29.8588C46.028 24.6291 31.3346 24.6291 22.2738 29.8588C17.7478 32.4722 15.4761 35.8974 15.4761 39.3225C15.4761 40 15.4761 42.7185 15.4761 43.4105C15.4761 46.8269 17.7537 50.2404 22.268 52.845C31.32 58.0777 46.0164 58.0777 55.0742 52.845C59.606 50.217 61.869 46.8006 61.8661 43.3696V39.34C61.8778 35.909 59.6148 32.478 55.08 29.8588Z" fill="black"/>
<path opacity="0.2" d="M29.4016 27.0556C26.9084 27.6588 24.51 28.602 22.2738 29.8588C17.7478 32.4722 15.4761 35.8974 15.4761 39.3225C15.4761 40 15.4761 42.7185 15.4761 43.4105C15.4761 46.8269 17.7537 50.2404 22.268 52.845C24.5034 54.104 26.902 55.0483 29.3957 55.6512L29.4016 27.0556Z" fill="black"/>
<path d="M38.6784 52.7253C51.4911 52.7253 61.8778 46.7286 61.8778 39.3313C61.8778 31.934 51.4911 25.9372 38.6784 25.9372C25.8657 25.9372 15.479 31.934 15.479 39.3313C15.479 46.7286 25.8657 52.7253 38.6784 52.7253Z" fill="#BA68C8"/>
<path d="M59.4222 37.8684L58.6601 31.0122C58.3681 28.4368 56.435 25.908 52.8376 23.94C45.0178 19.6622 32.3392 19.6622 24.5136 23.94C20.922 25.908 18.9802 28.428 18.6882 31.0122L17.9115 37.8684C17.5844 40.9606 19.5642 44.1113 23.8887 46.4736C31.907 50.8536 45.4354 50.8536 53.4508 46.4736C57.7695 44.1113 59.7551 40.9606 59.4222 37.8684Z" fill="#BA68C8"/>
<path opacity="0.2" d="M59.4222 37.8684L58.6601 31.0122C58.3681 28.4368 56.435 25.908 52.8376 23.94C45.0178 19.6622 32.3392 19.6622 24.5136 23.94C20.922 25.908 18.9802 28.428 18.6882 31.0122L17.9115 37.8684C17.5844 40.9606 19.5642 44.1113 23.8887 46.4736C31.907 50.8536 45.4354 50.8536 53.4508 46.4736C57.7695 44.1113 59.7551 40.9606 59.4222 37.8684Z" fill="black"/>
<path opacity="0.2" d="M24.5282 23.94C20.922 25.908 18.9802 28.428 18.6882 31.0122L17.9115 37.8684C17.5844 40.9606 19.5642 44.1113 23.8887 46.4736C25.6345 47.4029 27.4853 48.1195 29.4017 48.6081L29.8864 40.4526L30.8441 21.604C28.6432 22.0945 26.5186 22.8803 24.5282 23.94Z" fill="black"/>
<path d="M38.6784 42.6367C49.7365 42.6367 58.7009 37.7329 58.7009 31.6838C58.7009 25.6347 49.7365 20.7309 38.6784 20.7309C27.6204 20.7309 18.656 25.6347 18.656 31.6838C18.656 37.7329 27.6204 42.6367 38.6784 42.6367Z" fill="#BA68C8"/>
<path d="M38.6783 40.2774C48.2108 40.2774 55.9385 36.4299 55.9385 31.6838C55.9385 26.9377 48.2108 23.0902 38.6783 23.0902C29.1458 23.0902 21.4182 26.9377 21.4182 31.6838C21.4182 36.4299 29.1458 40.2774 38.6783 40.2774Z" fill="#BA68C8"/>
<path opacity="0.2" d="M38.6783 40.2774C48.2108 40.2774 55.9385 36.4299 55.9385 31.6838C55.9385 26.9377 48.2108 23.0902 38.6783 23.0902C29.1458 23.0902 21.4182 26.9377 21.4182 31.6838C21.4182 36.4299 29.1458 40.2774 38.6783 40.2774Z" fill="black"/>
<path d="M50.881 30.0632C44.1417 26.7081 33.2121 26.7081 26.4727 30.0632C24.2535 31.1699 22.776 32.516 22.011 33.9118C22.7673 35.3221 24.2535 36.6536 26.4727 37.7603C33.2121 41.1154 44.1417 41.1154 50.881 37.7603C53.1031 36.6536 54.5865 35.3221 55.3428 33.9118C54.5865 32.516 53.1031 31.1699 50.881 30.0632Z" fill="#BA68C8"/>
<path opacity="0.1" d="M50.881 30.0632C44.1417 26.7081 33.2121 26.7081 26.4727 30.0632C24.2535 31.1699 22.776 32.516 22.011 33.9118C22.7673 35.3221 24.2535 36.6536 26.4727 37.7603C33.2121 41.1154 44.1417 41.1154 50.881 37.7603C53.1031 36.6536 54.5865 35.3221 55.3428 33.9118C54.5865 32.516 53.1031 31.1699 50.881 30.0632Z" fill="white"/>
<path d="M53.3076 28.0513L32.9698 39.7956C30.7178 39.4273 28.53 38.739 26.4728 37.7516C23.3426 36.1952 21.6636 34.1833 21.4417 32.1422C21.6607 30.0982 23.3397 28.0922 26.4728 26.53C33.2122 23.1749 44.1388 23.1749 50.8811 26.53C51.7401 26.9523 52.5533 27.4621 53.3076 28.0513Z" fill="#BA68C8"/>
<path opacity="0.2" d="M53.3076 28.0513L32.9698 39.7956C30.7178 39.4273 28.53 38.739 26.4728 37.7516C23.3426 36.1952 21.6636 34.1833 21.4417 32.1422C21.6607 30.0982 23.3397 28.0922 26.4728 26.53C33.2122 23.1749 44.1388 23.1749 50.8811 26.53C51.7401 26.9523 52.5533 27.4621 53.3076 28.0513Z" fill="white"/>
<path d="M54.5806 32.808L41.8932 40.1372C38.917 40.4163 35.9169 40.3044 32.9697 39.8043L53.3075 28.0601L54.5806 32.808Z" fill="#BA68C8"/>
<path opacity="0.1" d="M54.5806 32.808L41.8932 40.1372C38.917 40.4163 35.9169 40.3044 32.9697 39.8043L53.3075 28.0601L54.5806 32.808Z" fill="black"/>
<path opacity="0.5" d="M54.1252 37.9209L51.1906 39.6145C51.0194 39.6918 50.8325 39.7279 50.6448 39.7197C50.4572 39.7116 50.2741 39.6596 50.1102 39.5678C49.7919 39.3838 49.7569 39.1035 50.0343 38.9429L52.9543 37.2522C53.1252 37.1745 53.312 37.138 53.4997 37.1456C53.6873 37.1532 53.8706 37.2047 54.0347 37.296C54.3676 37.48 54.4026 37.772 54.1252 37.9209Z" fill="black"/>
<path d="M59.0191 56.9739L57.2963 77.0343C57.0861 79.6156 55.2727 82.1618 51.8563 84.1358C44.5768 88.3376 32.7741 88.3376 25.4946 84.1358C21.8446 82.0275 20.0283 79.2652 20.0342 76.5029L18.3406 57.044C18.6326 59.8209 20.5977 62.5511 24.2711 64.671C32.231 69.2613 45.1257 69.2613 53.0798 64.671C56.7882 62.5307 58.768 59.7684 59.0162 56.9622L59.0191 56.9739Z" fill="#455A64"/>
<path d="M49.6984 73.6062C50.5008 72.86 51.4279 72.2601 52.4374 71.8338C52.5303 71.7945 52.6103 71.7297 52.668 71.6469C52.7256 71.5641 52.7587 71.4666 52.7633 71.3658C52.7678 71.265 52.7438 71.1649 52.6939 71.0772C52.6439 70.9895 52.5702 70.9177 52.4812 70.8702C50.4927 69.8862 47.6953 70.5373 45.7185 72.6047C43.6365 74.7859 43.2014 77.7848 44.5505 79.6974C44.6388 79.8119 44.769 79.8866 44.9124 79.9052C45.0559 79.9238 45.2008 79.8848 45.3155 79.7966C46.3784 78.9615 47.0675 77.9775 47.7595 76.3948C48.209 75.3429 48.8688 74.3939 49.6984 73.6062ZM54.2011 72.5667C54.1335 72.4507 54.026 72.3632 53.8986 72.3207C53.7712 72.2783 53.6327 72.2837 53.509 72.336C51.6444 73.1084 50.1155 74.5192 49.1962 76.316C48.7027 77.2592 48.3727 78.325 47.7537 79.201C47.3204 79.8208 46.7649 80.3454 46.1214 80.7427C46.0338 80.7982 46.0689 81.0114 46.1827 81.0581C48.1567 81.9195 50.8547 81.242 52.7615 79.2389C54.6683 77.2358 55.2143 74.4793 54.2011 72.5667Z" fill="#263238"/>
<path d="M30.7681 67.2056C28.4945 66.6744 26.3073 65.8251 24.2711 64.6827C20.5977 62.5628 18.6209 59.8326 18.3406 57.044L20.0342 76.4912C20.0342 79.2535 21.8446 82.0158 25.4946 84.1241C27.3607 85.1731 29.3663 85.9518 31.4514 86.4367L30.7681 67.2056Z" fill="#37474F"/>
</svg>
