<svg width="661" height="361" viewBox="0 0 661 361" fill="none" xmlns="http://www.w3.org/2000/svg">
<path d="M104.326 237.803C104.326 237.803 110.011 255.813 117.19 279.257C125.166 305.315 134.991 338.07 140.892 360.252H87.1851C86.2847 356.683 85.3038 352.823 84.2666 348.723L79.7321 331.035C75.4387 314.32 70.7112 296.045 66.5867 280.15C60.4039 256.327 55.5799 237.827 55.5799 237.827L104.326 237.803Z" fill="#455A64"/>
<path d="M65.9917 250.877C67.1495 255.001 68.6047 259.053 69.8831 263.129C71.1614 267.206 72.48 271.483 73.7664 275.664C76.3178 283.945 78.8477 292.229 81.3562 300.515C86.3892 317.083 91.4062 333.662 96.407 350.251C97.412 353.588 98.4653 356.916 99.5024 360.253H97.8944C95.9702 353.864 94.046 347.469 92.1217 341.069C87.0726 324.233 82.0422 307.39 77.0306 290.538C74.5222 282.074 72.0271 273.603 69.5454 265.123C68.2992 260.838 67.1334 256.545 65.8872 252.259C65.252 250.121 65.5254 249.18 65.9917 250.877Z" fill="#263238"/>
<path d="M98.7869 237.803C95.402 263.99 88.9539 313.098 84.2505 348.755C73.2438 305.588 55.5638 237.803 55.5638 237.803H98.7869Z" fill="#263238"/>
<path d="M79.7239 331.011C79.4586 340.868 79.1933 351.183 78.9842 360.252H29.6347C30.6397 337.837 32.3683 306.2 33.8155 280.697C35.1823 256.472 36.3079 237.803 36.3079 237.803H102.75C102.75 237.803 101.625 261.119 96.3185 279.611C95.8924 281.139 95.426 282.642 94.9195 284.081C90.0249 286.062 85.3208 288.484 80.8656 291.317C80.8656 291.317 80.2706 310.075 79.7239 331.011Z" fill="#455A64"/>
<path d="M37.4256 360.253H36.6216C36.9486 354.314 37.2487 348.378 37.5221 342.444C38.9532 310.365 40.0788 278.261 41.1401 246.173C41.1401 245.916 41.5421 245.892 41.5341 246.173C40.9954 264.32 40.521 282.474 39.9261 300.62C39.2346 320.463 38.4012 340.34 37.4256 360.253Z" fill="#263238"/>
<path d="M97.2833 282.691C91.5609 285.082 86.0569 287.966 80.8335 291.309C80.7966 291.337 80.7707 291.377 80.7604 291.421C80.7502 291.466 80.7563 291.513 80.7776 291.554C80.7989 291.595 80.8341 291.626 80.8768 291.643C80.9194 291.661 80.9668 291.662 81.0103 291.647C86.5579 288.946 92.2261 286.349 97.621 283.358C97.6952 283.306 97.7482 283.228 97.7702 283.14C97.7922 283.052 97.7818 282.959 97.7408 282.878C97.6998 282.797 97.631 282.734 97.547 282.699C97.463 282.665 97.3694 282.662 97.2833 282.691Z" fill="#263238"/>
<path d="M100.724 256.882C100.266 259.351 99.6712 261.795 99.1165 264.247C98.618 266.547 98.2562 268.894 97.6451 271.162C97.1538 273.366 96.0372 275.381 94.4291 276.966C93.5287 277.77 92.5317 278.574 91.5669 279.314C91.0523 279.724 90.4896 280.118 89.9589 280.544C90.0313 280.223 90.0875 279.885 90.1438 279.555C90.3127 278.615 90.4654 277.682 90.6262 276.749C90.9719 274.667 91.3096 272.585 91.6232 270.502C92.2503 266.41 92.8292 262.277 93.6814 258.225C93.6814 258.195 93.6712 258.165 93.6525 258.141C93.6337 258.117 93.6075 258.1 93.5779 258.093C93.5483 258.085 93.5171 258.088 93.4893 258.1C93.4614 258.113 93.4385 258.134 93.4241 258.161C92.4031 262.181 91.2775 266.153 90.3931 270.221C89.9589 272.207 88.3991 282.016 88.3348 282.707C88.2705 283.398 88.2062 284.138 88.174 284.862C88.0815 285.593 88.0815 286.333 88.174 287.065C88.2142 287.242 88.4313 287.209 88.5117 287.065C88.8075 286.383 89.0181 285.667 89.1388 284.934C89.3157 284.235 89.4765 283.527 89.5971 282.811C89.6453 282.554 89.6775 282.297 89.7177 282.007C90.6825 281.421 91.583 280.649 92.4835 279.989C93.3839 279.33 94.4452 278.599 95.3698 277.827C97.0684 276.388 98.2953 274.472 98.8913 272.327C99.4831 270.016 99.8679 267.656 100.041 265.276C100.355 262.494 100.58 259.688 100.974 256.915C101.006 256.786 100.757 256.714 100.724 256.882Z" fill="#263238"/>
<path d="M91.9288 172.993C95.2252 199.268 100.982 243.335 110.3 246.897C111.908 247.516 118.774 248.874 123.462 243.6C131.365 234.708 145.033 204.703 148.868 195.047C150.565 190.769 122.666 176.812 120.278 181.113C116.933 187.135 113.42 196.204 112.76 195.899C111.643 195.392 109.745 184.209 102.308 168.499C93.0223 148.977 90.6987 163.224 91.9288 172.993Z" fill="#F7A9A0"/>
<path d="M156.956 184.675C154.207 190.576 143.867 200.441 140.458 201.864C137.049 203.287 119.691 186.275 120.133 182.504C120.575 178.733 131.389 159.598 137.315 156.647C143.24 153.697 159.794 178.565 156.956 184.675Z" fill="#F7A9A0"/>
<path d="M121.395 178.927C121.395 178.927 121.966 170.477 119.964 163.297C118.276 157.259 115.084 148.479 118.3 147.45C124.893 145.336 132.836 167.228 132.836 167.228C132.836 167.228 134.798 177.447 128.446 180.092C127.278 180.567 126.001 180.709 124.757 180.503C123.512 180.298 122.349 179.752 121.395 178.927Z" fill="#F7A9A0"/>
<path d="M139.067 185.905L148.852 184.185L143.859 155.844L131.478 158.023L139.067 185.905Z" fill="#3D91FF"/>
<path d="M131.478 158.023L134.372 168.66L139.067 185.913L148.86 184.185L143.859 155.844L131.478 158.023Z" fill="#3D91FF"/>
<path opacity="0.1" d="M131.478 158.023L134.372 168.66L145.765 166.65L143.859 155.844L131.478 158.023Z" fill="black"/>
<path d="M129.012 150.721L144.42 148.004L146.484 159.707L131.076 162.424L129.012 150.721Z" fill="#3D91FF"/>
<path d="M117.922 148.246L130.103 147.329L126.766 128.387L115.012 131.7L117.922 148.246Z" fill="#3D91FF"/>
<path d="M132.265 123.555L137.186 151.51L157.696 150.376L207.423 159.325L195.588 92.1909L151.923 117.613L132.265 123.555Z" fill="#3D91FF"/>
<path d="M191.754 127.494C188.47 108.866 190.66 92.9086 196.646 91.853C202.633 90.7975 210.149 105.043 213.433 123.672C216.718 142.3 214.528 158.258 208.541 159.313C202.555 160.369 195.039 146.123 191.754 127.494Z" fill="#3D91FF"/>
<path opacity="0.2" d="M194.173 126.469C191.257 109.931 192.867 95.8234 197.769 94.9591C202.671 94.0947 209.009 106.801 211.925 123.339C214.841 139.878 213.231 153.985 208.329 154.85C203.427 155.714 197.089 143.008 194.173 126.469Z" fill="black"/>
<path d="M195.621 126.168C196.015 128.371 196.425 130.502 196.963 132.544C198.086 133.168 199.363 133.461 200.646 133.389C201.929 133.317 203.165 132.883 204.212 132.138C205.258 131.392 206.072 130.366 206.559 129.177C207.047 127.988 207.187 126.686 206.965 125.42L206.41 122.253C206.19 120.991 205.618 119.816 204.76 118.866C203.901 117.915 202.791 117.226 201.558 116.879C200.325 116.532 199.019 116.54 197.791 116.904C196.562 117.267 195.462 117.97 194.616 118.932C194.849 121.296 195.186 123.756 195.621 126.168Z" fill="#3D91FF"/>
<path d="M126.629 154.967L150.187 153.199L143.73 116.568L120.985 122.96L126.629 154.967Z" fill="#3D91FF"/>
<path opacity="0.2" d="M126.629 154.967L150.187 153.199L143.73 116.568L120.985 122.96L126.629 154.967Z" fill="black"/>
<path opacity="0.2" d="M193.257 97.3447C192.02 99.6074 191.203 102.075 190.845 104.629C190.439 107.171 190.238 109.741 190.242 112.315C190.242 113.602 190.282 114.888 190.322 116.166C190.363 117.445 190.491 118.731 190.628 120.009C190.765 121.288 190.901 122.566 191.094 123.837C191.287 125.107 191.472 126.377 191.697 127.639C192.58 132.707 193.926 137.683 195.717 142.505C196.624 144.915 197.743 147.24 199.062 149.452C200.342 151.694 202.082 153.639 204.167 155.16C202.174 153.549 200.532 151.546 199.343 149.275C198.098 147.051 197.051 144.721 196.216 142.312C194.531 137.495 193.259 132.544 192.413 127.511C191.456 122.499 190.918 117.416 190.805 112.315C190.735 109.765 190.867 107.214 191.199 104.685C191.456 102.138 192.152 99.6543 193.257 97.3447Z" fill="black"/>
<path d="M217.747 91.5156C216.356 92.6171 215.013 93.7909 213.727 94.9648C212.44 96.1386 211.106 97.3768 209.819 98.5667C208.533 99.7566 207.271 101.027 206.033 102.305L204.191 104.219C203.596 104.878 202.977 105.521 202.398 106.197C203.106 105.65 203.773 105.071 204.465 104.508L206.467 102.748C207.793 101.582 209.088 100.336 210.374 99.1456C211.661 97.9557 212.923 96.6853 214.153 95.407C215.383 94.1286 216.581 92.8583 217.747 91.5156Z" fill="#263238"/>
<path d="M207.858 143.39C209.795 143.896 211.757 144.314 213.711 144.716C215.664 145.118 217.634 145.52 219.604 145.834C221.574 146.147 223.544 146.501 225.529 146.774L228.504 147.176C229.493 147.281 230.49 147.41 231.487 147.49C230.522 147.233 229.541 147.024 228.569 146.783L225.634 146.163C223.68 145.745 221.71 145.359 219.741 145.046C217.771 144.732 215.801 144.379 213.815 144.113C211.829 143.848 209.851 143.567 207.858 143.39Z" fill="#263238"/>
<path d="M244.681 136.419C241.746 136.194 238.811 136.049 235.837 135.92C232.862 135.792 229.967 135.703 227.033 135.631C224.098 135.559 221.156 135.518 218.189 135.526H213.783C212.312 135.526 210.84 135.526 209.369 135.631C210.84 135.752 212.304 135.824 213.775 135.92L218.181 136.137C221.115 136.274 224.05 136.346 227.025 136.427C230 136.507 232.902 136.531 235.869 136.523C238.836 136.515 241.738 136.523 244.681 136.419Z" fill="#263238"/>
<path d="M234.156 92.1025C231.648 93.7105 229.188 95.3989 226.735 97.0954C224.283 98.7918 221.855 100.52 219.435 102.257C217.015 103.994 214.611 105.763 212.247 107.572L208.694 110.281C207.528 111.214 206.346 112.114 205.188 113.063C206.45 112.259 207.681 111.455 208.927 110.603L212.609 108.07C215.069 106.382 217.489 104.645 219.909 102.908C222.329 101.172 224.733 99.3948 227.097 97.5939C229.461 95.7929 231.841 94.008 234.156 92.1025Z" fill="#263238"/>
<path d="M208.251 124.303C211.66 123.837 215.061 123.282 218.454 122.695C221.847 122.108 225.232 121.489 228.617 120.894C232.002 120.299 235.378 119.599 238.747 118.9L243.804 117.847C245.477 117.461 247.165 117.107 248.837 116.697C247.133 116.93 245.428 117.204 243.732 117.453L238.635 118.257C235.242 118.82 231.857 119.463 228.472 120.058C225.087 120.653 221.71 121.352 218.342 122.052C214.973 122.751 211.58 123.507 208.251 124.303Z" fill="#263238"/>
<path d="M129.065 163.023C129.443 166.448 133.27 164.052 133.27 164.052C133.27 164.052 128.591 168.828 130.344 172.221C132.04 175.477 136.559 172.414 136.888 172.221C136.639 172.478 132.458 176.981 134.565 180.205C136.671 183.429 140.772 179.698 140.997 179.449C140.844 179.763 138.85 183.943 140.997 186.026C144.711 189.604 150.09 179.047 154.11 177.929C154.11 177.929 156.787 184.522 156.908 184.699C156.908 184.699 162.23 174.77 160.413 169.423C160.163 168.643 159.653 167.971 158.969 167.519C158.285 167.068 157.467 166.863 156.651 166.939C156.651 166.939 158.717 163.932 157.141 161.311C156.337 159.984 153.475 160.105 153.475 160.105C153.475 160.105 155.035 157.62 153.475 155.409C152.245 153.641 149.584 154.035 149.584 154.035C149.584 154.035 149.977 150.963 148.128 149.556C144.47 146.742 128.278 155.683 129.065 163.023Z" fill="#F7A9A0"/>
<path d="M149.206 154.051C149.214 154.047 149.222 154.041 149.227 154.033C149.232 154.025 149.235 154.016 149.235 154.007C149.235 153.997 149.232 153.988 149.227 153.98C149.222 153.972 149.214 153.966 149.206 153.962C143.16 155.57 137.025 159.253 133.069 164.157C132.941 164.318 133.15 164.599 133.327 164.447C138.091 160.234 143.439 156.732 149.206 154.051Z" fill="#263238"/>
<path d="M153.587 160.041C153.652 160.041 153.587 159.904 153.531 159.928C147.316 161.649 140.522 165.958 136.647 172.141C136.518 172.358 136.607 172.68 136.784 172.446C139.654 168.531 148.128 162.477 153.587 160.041Z" fill="#263238"/>
<path d="M140.909 179.947C144.872 174.159 150.291 170.219 156.434 166.979C156.514 166.979 156.434 166.826 156.369 166.85C152.936 167.654 149.23 170.066 146.512 172.261C143.949 174.225 141.947 176.829 140.708 179.811C140.659 179.931 140.828 180.036 140.909 179.947Z" fill="#263238"/>
<path d="M133.15 164.044C132.997 164.237 133.447 164.253 133.302 164.446C132.667 165.25 129.323 170.621 130.786 172.326C131.96 173.692 134.613 173.057 135.53 172.414L137.853 170.806L136.245 173.13C135.528 174.157 134.984 175.295 134.637 176.498C134.438 177.046 134.357 177.629 134.4 178.21C134.443 178.79 134.609 179.355 134.886 179.867C135.148 180.341 135.565 180.711 136.067 180.914C136.569 181.118 137.126 181.143 137.644 180.985C138.795 180.604 139.832 179.941 140.659 179.055L143.015 176.643L141.576 179.65C141.171 180.486 140.874 181.369 140.691 182.279C140.487 183.135 140.534 184.031 140.828 184.86C140.983 185.225 141.237 185.541 141.56 185.77C141.884 186 142.265 186.136 142.661 186.162C143.551 186.088 144.402 185.761 145.113 185.222C146.676 184.07 148.146 182.799 149.511 181.419C150.219 180.744 150.934 180.068 151.682 179.425C152.398 178.74 153.25 178.214 154.182 177.881C153.305 178.308 152.519 178.9 151.867 179.626C151.175 180.317 150.524 181.041 149.865 181.765C148.569 183.269 147.135 184.647 145.58 185.881C144.749 186.569 143.734 186.997 142.661 187.111C142.073 187.107 141.498 186.933 141.008 186.609C140.517 186.285 140.13 185.825 139.895 185.286C139.484 184.266 139.388 183.145 139.622 182.07C139.804 181.053 140.118 180.064 140.555 179.127L141.471 179.755C140.512 180.823 139.289 181.621 137.925 182.07C137.162 182.296 136.344 182.251 135.61 181.941C134.903 181.613 134.31 181.081 133.905 180.414C133.554 179.765 133.345 179.049 133.291 178.313C133.237 177.577 133.339 176.838 133.592 176.145C134.003 174.825 134.631 173.584 135.449 172.47L136.157 173.178C134.951 173.982 132.072 174.987 129.982 173.097C127.594 170.283 132.233 164.953 133.15 164.044Z" fill="#263238"/>
<path d="M133.271 164.053C132.606 164.305 131.906 164.454 131.196 164.495C130.912 164.518 130.627 164.466 130.37 164.343C130.113 164.22 129.893 164.031 129.733 163.795C129.46 163.228 129.357 162.595 129.435 161.97C129.484 161.279 129.572 160.555 129.693 159.808C129.215 160.411 128.872 161.11 128.688 161.858C128.564 162.262 128.52 162.686 128.56 163.107C128.6 163.528 128.723 163.937 128.921 164.31C129.178 164.702 129.552 165.003 129.99 165.17C130.407 165.312 130.855 165.337 131.285 165.243C132.056 165.067 132.752 164.65 133.271 164.053Z" fill="#263238"/>
<path d="M151.039 204.518L120.543 180.036C120.543 180.036 113.154 195.312 112.72 195.248C112.286 195.184 107.446 174.915 99.422 162.284C91.3981 149.653 89.4685 163.361 91.173 173.781C92.8775 184.201 100.901 241.952 108.113 247.243C115.325 252.533 122.103 245.908 124.997 243.102C129.041 239.186 151.039 204.518 151.039 204.518Z" fill="#3D91FF"/>
<path d="M145.17 207.275C144.213 206.294 134.629 198.817 132.515 197.241L126.147 192.514C123.96 190.906 121.797 189.129 119.482 187.69C119.472 187.682 119.46 187.676 119.448 187.673C119.436 187.669 119.423 187.668 119.41 187.67C119.398 187.671 119.385 187.675 119.374 187.681C119.363 187.688 119.353 187.696 119.345 187.706C119.337 187.716 119.332 187.727 119.328 187.74C119.325 187.752 119.324 187.765 119.325 187.778C119.327 187.79 119.33 187.803 119.337 187.814C119.343 187.825 119.351 187.835 119.361 187.843C121.371 189.692 123.639 191.3 125.793 192.98C127.948 194.661 130.03 196.309 132.153 197.957C134.276 199.605 143.924 206.801 145.081 207.436C145.178 207.484 145.234 207.372 145.17 207.275Z" fill="#263238"/>
<path d="M112.688 195.208C111.884 197.008 111.08 198.858 110.405 200.707C109.729 202.556 109.054 204.445 108.451 206.335C107.848 208.224 107.301 210.138 106.843 212.075C106.363 214.006 105.995 215.963 105.741 217.937C106.039 216.98 106.28 216.023 106.545 215.082C106.811 214.142 107.108 213.185 107.406 212.236L109.175 206.608L110.943 200.98L111.884 198.07C112.157 197.113 112.455 196.164 112.688 195.208Z" fill="#263238"/>
<path d="M112.575 258.112C111.257 259.423 30.1735 255.129 29.7634 254.607C28.6941 253.176 57.6944 166.882 76.701 153.23C80.7853 150.296 91.7679 154.227 94.59 157.057C96.3588 158.834 100.218 170.05 102.726 179.32C107.792 197.893 113.725 256.962 112.575 258.112Z" fill="white"/>
<path d="M92.9418 153.416C96.1578 155.828 98.618 168.137 91.2694 169.801C83.9209 171.466 77.1029 159.864 76.0979 156.133C75.0929 152.403 85.9872 148.254 92.9418 153.416Z" fill="#3D91FF"/>
<path d="M90.739 168.113C86.1803 168.7 79.2579 161.102 76.8217 155.249C76.6529 154.847 77.6257 150.931 78.6388 146.107C79.2257 143.181 79.8046 139.909 80.1262 136.877L98.6182 143.478C98.6182 143.478 96.0856 149.629 95.563 154.911C95.5228 155.328 95.5228 155.748 95.563 156.165C95.563 156.222 95.563 156.294 95.563 156.374C95.7157 158.794 95.1449 167.55 90.739 168.113Z" fill="#F7A9A0"/>
<path d="M81.0023 137.215C81.1953 141.058 82.6505 154.903 93.6171 156.302C94.2676 156.384 94.9234 156.416 95.5789 156.398C95.5917 156.329 95.5917 156.258 95.5789 156.189C95.5467 155.772 95.5467 155.352 95.5789 154.935C96.1095 149.661 98.6421 143.51 98.6421 143.51L81.0023 137.215Z" fill="#263238"/>
<path d="M79.8124 114.221C77.119 120.765 78.8235 140.56 83.1973 145.36C89.5489 152.314 100.885 153.994 107.004 146.164C112.953 138.566 110.276 112.798 105.299 108.376C97.9748 101.775 83.8003 104.557 79.8124 114.221Z" fill="#F7A9A0"/>
<path d="M97.2995 127.896C97.2995 127.848 97.1949 127.969 97.203 128.025C97.3557 129.36 97.2995 130.903 96.1337 131.442C96.1337 131.442 96.1337 131.53 96.1337 131.522C97.605 131.193 97.6532 129.135 97.2995 127.896Z" fill="#263238"/>
<path d="M95.9889 126.602C93.8342 126.602 94.0111 130.928 95.9889 130.92C97.9667 130.912 97.7979 126.594 95.9889 126.602Z" fill="#263238"/>
<path d="M104.785 127.623C104.785 127.575 104.889 127.687 104.889 127.736C104.889 129.078 105.147 130.606 106.377 131V131.08C104.881 130.936 104.584 128.893 104.785 127.623Z" fill="#263238"/>
<path d="M105.918 126.168C108.065 125.919 108.411 130.188 106.425 130.462C104.439 130.735 104.125 126.393 105.918 126.168Z" fill="#263238"/>
<path d="M94.1961 124.697C94.7578 124.509 95.3081 124.289 95.8443 124.038C96.4561 123.887 97.0013 123.54 97.396 123.049C97.4899 122.87 97.5219 122.664 97.487 122.465C97.4521 122.266 97.3523 122.084 97.2031 121.947C96.8678 121.723 96.4787 121.592 96.0759 121.568C95.6731 121.543 95.2712 121.627 94.9117 121.811C94.1259 122.07 93.4642 122.611 93.0544 123.33C92.9705 123.499 92.9377 123.689 92.9599 123.877C92.9821 124.064 93.0583 124.241 93.1793 124.386C93.3004 124.531 93.4609 124.637 93.6415 124.693C93.822 124.748 94.0147 124.749 94.1961 124.697Z" fill="#263238"/>
<path d="M107.494 123.933C106.899 123.861 106.353 123.692 105.766 123.563C105.135 123.519 104.538 123.264 104.069 122.84C103.947 122.681 103.88 122.485 103.88 122.285C103.88 122.084 103.947 121.889 104.069 121.73C104.362 121.45 104.725 121.255 105.119 121.163C105.514 121.071 105.926 121.086 106.312 121.207C107.129 121.331 107.87 121.752 108.395 122.389C108.504 122.543 108.567 122.725 108.575 122.913C108.583 123.102 108.537 123.289 108.442 123.452C108.347 123.614 108.207 123.746 108.039 123.832C107.871 123.917 107.682 123.952 107.494 123.933Z" fill="#263238"/>
<path d="M95.5869 140.423C95.9166 140.72 96.2542 141.138 96.7447 141.154C97.242 141.128 97.7276 140.993 98.1678 140.76C98.1763 140.758 98.1853 140.759 98.1937 140.761C98.2021 140.764 98.2096 140.769 98.2154 140.776C98.2212 140.782 98.225 140.79 98.2266 140.799C98.2281 140.808 98.2272 140.817 98.224 140.825C98.0477 141.099 97.799 141.32 97.5053 141.461C97.2116 141.603 96.8843 141.661 96.5598 141.629C96.2842 141.571 96.0322 141.432 95.836 141.23C95.6398 141.028 95.5083 140.772 95.4583 140.495C95.4342 140.407 95.5387 140.375 95.5869 140.423Z" fill="#263238"/>
<path d="M96.8251 136.355C97.1845 136.871 97.6475 137.306 98.1847 137.633C98.7218 137.959 99.3213 138.17 99.9446 138.252C100.478 138.329 101.019 138.329 101.553 138.252C101.658 138.245 101.763 138.229 101.866 138.204L102.156 138.148C102.227 138.132 102.292 138.092 102.338 138.035C102.385 137.978 102.411 137.908 102.413 137.834C102.417 137.789 102.417 137.743 102.413 137.698V137.577C102.413 136.548 102.228 134.988 102.228 134.988C102.614 135.157 104.568 135.945 104.519 135.406C104.061 130.96 103.563 126.023 102.172 121.738C102.132 121.593 101.906 121.634 101.931 121.738C102.196 126.031 103.217 130.236 103.539 134.538C102.845 134.25 102.114 134.063 101.368 133.983C101.223 134.031 101.738 136.99 101.705 137.456C101.707 137.472 101.707 137.489 101.705 137.505C99.9848 137.802 98.6582 137.328 96.9377 136.242C96.8412 136.162 96.7367 136.25 96.8251 136.355Z" fill="#263238"/>
<path d="M100.821 138.003C100.229 138.708 99.4645 139.248 98.602 139.571C98.1235 139.724 97.6091 139.724 97.1307 139.571C96.0855 139.241 96.1096 138.268 96.3267 137.448C96.4577 137.011 96.6384 136.59 96.8654 136.194C97.9556 137.206 99.3425 137.84 100.821 138.003Z" fill="#263238"/>
<path d="M98.6021 139.571C98.1236 139.724 97.6092 139.724 97.1307 139.571C96.0855 139.241 96.1096 138.268 96.3267 137.448C96.8905 137.491 97.4228 137.725 97.8363 138.111C98.2498 138.497 98.5198 139.011 98.6021 139.571Z" fill="#F392B9"/>
<path d="M79.3864 130.638C78.904 128.91 74.4418 110.273 74.9323 108.239C75.3825 106.39 77.4086 107.145 77.4327 107.041C77.4568 106.936 77.5292 105.248 78.5744 104.629C78.9309 104.474 79.3154 104.394 79.704 104.394C80.0926 104.394 80.4771 104.474 80.8336 104.629C80.8336 104.629 81.1472 102.852 82.2648 102.37C82.639 102.251 83.0377 102.233 83.4213 102.316C83.8049 102.399 84.1601 102.581 84.4516 102.844C84.5544 102.372 84.7706 101.932 85.0816 101.562C85.3926 101.192 85.789 100.904 86.2365 100.721C86.6356 100.606 87.0612 100.622 87.4506 100.766C87.84 100.911 88.1726 101.177 88.3993 101.525C88.3993 101.525 88.8736 99.8289 90.0073 99.4993C91.1409 99.1697 92.1781 100.432 92.1781 100.432C92.3457 100.004 92.6251 99.6292 92.9872 99.3463C93.3493 99.0634 93.7807 98.883 94.2363 98.8239C94.6792 98.8542 95.1031 99.0156 95.454 99.2876C95.8048 99.5597 96.0666 99.9301 96.2061 100.352C96.2061 100.352 97.0101 98.8561 98.3769 98.8159C99.7437 98.7757 100.162 100.424 100.162 100.424C100.162 100.424 100.709 98.9445 101.963 99.041C103.217 99.1375 103.506 100.89 103.506 100.89C103.506 100.89 104.206 99.2822 105.685 99.7405C107.945 100.472 108.226 111.278 108.74 115.973C108.74 115.973 108.113 113.73 107.132 113.65C106.152 113.569 105.46 115.089 103.667 115.491C101.119 116.054 96.8734 113.079 93.36 113.811C89.8465 114.542 87.4184 118.128 86.1883 123.459C84.8456 129.641 80.5281 134.739 79.3864 130.638Z" fill="#263238"/>
<path d="M96.4634 134.513C97.9056 134.249 99.184 133.424 100.018 132.218C100.851 131.012 101.172 129.524 100.91 128.081C100.725 127.068 100.26 126.126 99.5667 125.364C98.8737 124.602 97.9808 124.049 96.9894 123.769C95.998 123.488 94.9479 123.492 93.9583 123.779C92.9688 124.065 92.0795 124.624 91.3916 125.391C90.7037 126.158 90.2446 127.102 90.0667 128.117C89.8887 129.132 89.999 130.176 90.3849 131.131C90.7708 132.087 91.4169 132.915 92.2498 133.521C93.0827 134.127 94.069 134.488 95.0966 134.562C95.5525 134.601 96.0115 134.585 96.4634 134.513ZM100.186 128.242C100.354 129.172 100.242 130.13 99.8654 130.996C99.4885 131.863 98.8632 132.597 98.0686 133.108C97.2741 133.619 96.3459 133.883 95.4014 133.866C94.457 133.849 93.5387 133.553 92.7627 133.014C91.9868 132.475 91.388 131.719 91.0421 130.84C90.6962 129.961 90.6188 128.999 90.8195 128.076C91.0203 127.153 91.4903 126.31 92.17 125.654C92.8498 124.998 93.7087 124.559 94.6383 124.391C95.0278 124.318 95.4251 124.296 95.8202 124.327C96.8801 124.4 97.8853 124.825 98.6762 125.534C99.4672 126.243 99.9985 127.196 100.186 128.242Z" fill="#3D91FF"/>
<path d="M108.089 133.934C110.348 133.83 112.069 131.273 111.932 128.242C111.892 126.868 111.422 125.541 110.59 124.447C110.261 123.956 109.811 123.559 109.283 123.293C108.756 123.027 108.168 122.902 107.578 122.929C106.988 122.957 106.415 123.136 105.914 123.45C105.413 123.764 105.002 124.201 104.72 124.721C103.993 125.886 103.65 127.25 103.74 128.62C103.868 131.498 105.629 133.782 107.76 133.934H108.089ZM110.019 124.906C110.753 125.878 111.163 127.056 111.193 128.274C111.313 130.903 109.906 133.098 108.057 133.203C106.208 133.307 104.592 131.217 104.471 128.588C104.395 127.372 104.695 126.162 105.331 125.123C105.568 124.715 105.899 124.37 106.296 124.117C106.693 123.864 107.146 123.709 107.615 123.667H107.864C108.29 123.712 108.701 123.846 109.072 124.059C109.443 124.272 109.766 124.56 110.019 124.906Z" fill="#3D91FF"/>
<path d="M100.757 128.757L100.258 128.21C101.062 127.47 102.944 126.441 104.359 127.816L103.844 128.339C102.582 127.108 100.829 128.684 100.757 128.757Z" fill="#3D91FF"/>
<path d="M76.299 131.305L75.6237 131C75.7684 130.686 77.0789 127.937 78.703 127.599C80.3271 127.261 90.1359 127.744 90.562 127.768V128.5C87.7239 128.363 80.11 128.073 78.896 128.315C77.6819 128.556 76.6448 130.55 76.299 131.305Z" fill="#3D91FF"/>
<path d="M83.7441 129.955C83.7441 129.955 79.8045 123.322 76.8297 124.681C73.8549 126.039 76.484 135.422 79.7483 136.925C80.1535 137.148 80.5995 137.285 81.0594 137.33C81.5193 137.374 81.9835 137.325 82.4239 137.186C82.8643 137.046 83.2718 136.818 83.6217 136.516C83.9716 136.215 84.2567 135.845 84.4597 135.43L83.7441 129.955Z" fill="#F7A9A0"/>
<path d="M77.682 127.35C77.6734 127.354 77.666 127.36 77.6609 127.368C77.6558 127.376 77.653 127.385 77.653 127.394C77.653 127.404 77.6558 127.413 77.6609 127.421C77.666 127.429 77.6734 127.435 77.682 127.439C79.9653 128.572 81.0427 130.847 81.7422 133.179C81.107 132.254 80.1905 131.7 78.9603 132.447C78.9485 132.457 78.94 132.47 78.9359 132.485C78.9319 132.499 78.9327 132.515 78.938 132.529C78.9434 132.543 78.953 132.556 78.9657 132.564C78.9784 132.572 78.9934 132.577 79.0086 132.576C79.4329 132.477 79.8773 132.512 80.2814 132.674C80.6856 132.837 81.03 133.12 81.2678 133.485C81.6594 134.099 81.9829 134.754 82.2326 135.438C82.3291 135.655 82.715 135.575 82.6587 135.326C82.6553 135.307 82.6553 135.288 82.6587 135.27C82.8999 132.271 80.8819 127.897 77.682 127.35Z" fill="#263238"/>
<path d="M65.252 158.875C39.0175 176.917 20.0833 205.201 18.2582 211.135C13.8443 225.607 7.25951 251.094 6.24648 262.543C5.86859 266.78 38.4949 265.992 39.0416 261.481C40.7381 247.347 46.8163 216.602 46.9691 216.079C48.0545 212.357 57.3166 196.253 66.8359 178.734C76.3553 161.215 76.3151 151.277 65.252 158.875Z" fill="#F7A9A0"/>
<path d="M36.4528 306.135C33.1242 307.277 30.9614 304.334 30.9614 304.334C29.8523 305.694 28.3018 306.621 26.5796 306.955C23.5164 307.406 21.4742 302.799 21.4742 302.799C20.0265 303.966 18.2621 304.671 16.409 304.825C13.4342 304.953 10.7167 300.604 10.7167 300.604C8.79362 300.933 6.81595 300.569 5.13697 299.575C2.31493 297.758 0.923992 288.761 0.972233 283.696C1.02047 278.631 5.90076 264.319 6.55199 261.489H39.0577C39.0577 261.489 45.3048 284.25 44.3963 290.2C43.6405 295.241 40.1914 304.857 36.4528 306.135Z" fill="#F7A9A0"/>
<path d="M31.4841 304.117C33.5665 298.98 34.0248 293.512 34.7886 288.077C34.7886 288.052 34.7784 288.027 34.7603 288.009C34.7422 287.991 34.7177 287.981 34.6921 287.981C34.6665 287.981 34.642 287.991 34.6239 288.009C34.6058 288.027 34.5956 288.052 34.5956 288.077C33.9042 293.488 32.1434 298.698 31.2269 304.069C31.23 304.098 31.2425 304.126 31.2624 304.147C31.2824 304.169 31.3087 304.183 31.3376 304.189C31.3664 304.194 31.3963 304.19 31.4227 304.177C31.4491 304.164 31.4706 304.143 31.4841 304.117Z" fill="#263238"/>
<path d="M21.9003 302.694C22.2596 301.482 22.4596 300.228 22.4953 298.964C22.6186 297.629 22.715 296.289 22.7847 294.944C22.9375 292.266 23.034 289.589 23.042 286.904C23.042 286.783 22.8651 286.751 22.8571 286.904C22.6963 289.573 22.5033 292.234 22.238 294.887C22.1013 296.222 21.9566 297.549 21.8038 298.907C21.5751 300.15 21.4861 301.415 21.5385 302.678C21.5505 302.716 21.5737 302.749 21.6051 302.773C21.6364 302.797 21.6744 302.811 21.7138 302.812C21.7532 302.814 21.7923 302.804 21.8256 302.783C21.859 302.761 21.885 302.731 21.9003 302.694Z" fill="#263238"/>
<path d="M10.7248 300.491C11.036 299.389 11.1557 298.241 11.0786 297.098C11.1268 295.884 11.1751 294.686 11.2314 293.44C11.3439 291.028 11.4645 288.568 11.6655 286.132C11.6655 286.106 11.6554 286.082 11.6373 286.063C11.6192 286.045 11.5946 286.035 11.5691 286.035C11.5435 286.035 11.5189 286.045 11.5008 286.063C11.4827 286.082 11.4726 286.106 11.4726 286.132C11.2635 288.6 11.0143 291.068 10.8133 293.545L10.548 297.187C10.3693 298.288 10.3884 299.412 10.6042 300.507C10.6102 300.519 10.6198 300.529 10.6316 300.535C10.6435 300.542 10.657 300.544 10.6703 300.542C10.6836 300.54 10.696 300.535 10.7057 300.525C10.7155 300.516 10.7222 300.504 10.7248 300.491Z" fill="#263238"/>
<path d="M40.6096 261.875L4.95215 258.997C4.95215 258.997 12.8072 220.59 17.0684 210.21C21.3296 199.831 42.5472 174.223 64.6733 159.044C79.7241 148.728 78.7915 157.524 71.8369 171.192C64.8823 184.86 48.5209 216.144 47.7169 218.628C46.9129 221.113 40.6096 261.875 40.6096 261.875Z" fill="#3D91FF"/>
<path d="M39.9822 254.519C38.6476 254.205 26.5474 253.096 23.9022 252.911L15.9989 252.364C13.2733 252.179 10.5076 251.865 7.77398 251.898C7.75958 251.893 7.74436 251.892 7.72956 251.895C7.71477 251.898 7.70079 251.904 7.68874 251.913C7.67669 251.922 7.66692 251.933 7.66018 251.947C7.65344 251.96 7.64992 251.975 7.64992 251.99C7.64992 252.005 7.65344 252.02 7.66018 252.033C7.66692 252.047 7.67669 252.058 7.68874 252.067C7.70079 252.076 7.71477 252.082 7.72956 252.085C7.74436 252.088 7.75958 252.087 7.77398 252.082C10.4593 252.557 13.2412 252.694 15.9506 252.951L23.9906 253.707C26.676 253.948 38.6636 254.784 39.9902 254.695C40.0948 254.687 40.0707 254.543 39.9822 254.519Z" fill="#263238"/>
<path d="M288.134 118.247C287.762 120.973 287.354 123.605 286.91 126.141C286.466 128.678 286.055 130.613 285.676 131.947C285.337 133.306 284.984 134.261 284.618 134.81C284.252 135.359 283.84 135.765 283.383 136.026C282.958 136.281 282.497 136.442 282 136.507C281.536 136.566 281.056 136.628 280.559 136.694C277.728 136.819 276.483 135.012 276.822 131.272C276.945 128.324 277.042 125.925 277.114 124.075C277.179 122.192 277.227 120.653 277.26 119.456C277.318 118.221 277.37 117.207 277.416 116.416C277.455 115.593 277.513 114.782 277.592 113.984C277.67 113.187 277.777 112.281 277.914 111.268C278.084 110.248 278.29 108.898 278.531 107.218C277.322 107.63 276.184 107.722 275.119 107.494C273.556 107.161 272.7 105.938 272.549 103.827C272.49 102.853 272.819 101.869 273.538 100.875C273.911 100.359 274.358 99.7931 274.881 99.1784C275.953 97.9099 278.27 96.324 281.832 94.4207C285.519 92.4586 288.774 91.2287 291.598 90.7311C292.323 90.4498 293.111 90.3941 293.961 90.5638C294.837 90.6943 295.572 90.9719 296.167 91.3967C296.762 91.8215 297.122 92.3443 297.247 92.9653C297.404 93.5798 297.123 94.214 296.404 94.8679C296.064 95.2079 295.874 95.7048 295.835 96.3585C295.79 96.9796 295.738 97.6529 295.679 98.3786C295.614 99.0715 295.441 99.7351 295.16 100.369C294.912 100.997 294.389 101.442 293.591 101.703C293.212 102.017 292.64 102.302 291.876 102.557C291.143 102.805 290.653 102.989 290.405 103.106C290.183 103.185 290.068 103.293 290.062 103.43C289.82 105.28 289.54 107.529 289.22 110.177C288.894 112.792 288.532 115.482 288.134 118.247ZM278.913 106.581C278.848 106.594 278.819 106.617 278.825 106.649C278.825 106.649 278.858 106.643 278.923 106.63L278.913 106.581ZM308.038 120.89C309.973 120.706 311.398 120.523 312.313 120.34C313.261 120.15 314.657 119.734 316.5 119.093C317.128 119.171 317.52 119.348 317.677 119.622C317.834 119.897 317.929 120.201 317.962 120.534C317.988 120.835 318.063 121.126 318.187 121.407C318.312 121.688 318.671 121.871 319.266 121.956C319.58 121.995 319.72 122.273 319.688 122.789C319.682 123.266 319.522 123.825 319.208 124.466C318.411 126.087 317.332 127.323 315.973 128.173C313.738 129.233 311.96 129.946 310.639 130.313C308.449 130.921 306.014 131.324 303.334 131.521C300.353 131.574 298.725 130.659 298.45 128.776C297.076 121.913 297.198 114.715 298.817 107.184C299.346 104.732 299.983 102.14 300.727 99.4073C300.884 98.832 300.913 98.2142 300.815 97.554C300.749 96.8872 300.671 96.24 300.579 95.6125C300.487 94.9849 300.474 94.4096 300.539 93.8867C300.604 93.3637 300.879 92.9517 301.363 92.6509C307.618 88.5765 312.785 86.4538 316.864 86.2828C318.243 86.0405 319.237 86.3344 319.845 87.1645C320.479 87.9553 320.728 88.9424 320.591 90.1256C320.487 91.3024 320.026 92.4825 319.209 93.6659C318.425 94.8428 317.304 95.6962 315.847 96.2261C314.03 97.168 312.928 97.7795 312.543 98.0607C311.804 98.6166 311.321 99.2573 311.092 99.983C310.778 100.794 310.491 101.565 310.23 102.297C309.968 103.03 309.831 103.788 309.818 104.572L309.838 105.69C310.518 105.86 311.29 105.808 312.152 105.533C313.041 105.219 313.852 104.937 314.584 104.689C315.342 104.401 315.96 104.26 316.437 104.267C316.947 104.267 317.143 104.737 317.026 105.679C316.935 106.581 316.621 107.646 316.085 108.876C315.582 110.098 314.71 111.089 313.468 111.847C312.651 112.181 312.089 112.43 311.782 112.593C311.501 112.717 311.282 112.812 311.125 112.878C310.903 112.956 310.259 113.136 309.193 113.417C308.181 116.34 307.655 118.553 307.616 120.056C307.603 120.671 307.744 120.949 308.038 120.89ZM336.005 84.4889C336.509 85.3059 336.806 85.8582 336.898 86.1458C337.088 86.7538 336.963 87.3225 336.526 87.8522C336.532 87.8848 336.509 87.9404 336.457 88.0189C337.059 89.4961 337.412 90.9211 337.517 92.2939C337.622 93.6667 337.668 95.0003 337.656 96.2947C338.818 92.9342 339.782 90.4466 340.546 88.8317C342.121 85.4907 343.715 83.0127 345.329 81.3976C345.878 80.9137 346.578 80.5016 347.428 80.1615C348.303 79.7821 349.163 79.5759 350.006 79.543C350.85 79.5101 351.585 79.7028 352.213 80.121C352.873 80.5326 353.275 81.268 353.42 82.3269C353.781 88.8837 353.992 95.0286 354.052 100.762C354.106 106.462 353.8 111.98 353.135 117.314L353.154 117.412L353.105 117.422C352.949 118.677 352.135 119.707 350.665 120.512C349.22 121.277 347.854 121.584 346.566 121.434C345.01 121.304 344.183 120.654 344.085 119.484L343.908 118.346L343.888 118.248C343.862 117.438 343.822 116.902 343.77 116.64C343.744 116.339 343.734 116.12 343.74 115.983C343.636 115.12 343.609 114.31 343.661 113.551C343.74 112.754 343.782 112.116 343.788 111.639C343.795 111.162 343.808 110.717 343.827 110.305C343.84 109.861 343.84 109.521 343.827 109.286C342.925 111.234 342.249 112.44 341.798 112.905C340.674 114.082 339.239 114.811 337.494 115.092C336.402 115.243 335.732 115.122 335.484 114.73C334.973 113.88 334.637 113.387 334.473 113.25C334.225 113.028 333.973 112.619 333.718 112.024C333.621 115.953 333.321 118.784 332.818 120.516C332.616 121.203 332.4 121.824 332.171 122.38C331.93 123.55 331.034 124.511 329.485 125.263C328.034 125.996 326.557 126.258 325.053 126.049C323.524 125.879 322.674 125.2 322.503 124.01C322.333 122.82 322.283 121.3 322.355 119.45C322.387 117.574 322.481 115.583 322.638 113.478C323.041 106.837 323.396 102.499 323.703 100.466C324.042 98.4262 324.349 96.8179 324.623 95.6412C325.296 92.8888 325.975 90.849 326.661 89.5218C327.262 87.2598 328.697 85.6806 330.965 84.7844C332.756 84.0518 334.436 83.9533 336.005 84.4889ZM367.51 78.4851L367.529 78.5832C367.536 78.6158 367.539 78.6322 367.539 78.6322C367.572 78.6256 367.592 78.6387 367.598 78.6714L367.618 78.7694L367.667 78.7596L368.118 79.4851C368.635 80.3675 368.374 83.4793 367.336 88.8205C366.233 94.5147 366.057 98.8162 366.81 101.725C367.588 103.745 369 101.711 371.044 95.6247C372.677 90.8783 374.147 85.7396 375.453 80.2088C375.61 79.4635 375.779 78.6986 375.962 77.9141C376.138 77.0969 376.423 76.3941 376.815 75.8056C377.658 74.413 378.903 73.8406 380.55 74.0886C380.949 73.3629 381.468 72.8169 382.109 72.4506C382.782 72.0778 383.442 71.8946 384.09 71.901C384.769 71.9008 385.387 72.1 385.943 72.4986C386.492 72.8645 386.862 73.4365 387.052 74.2143C387.281 74.8484 387.248 76.4696 386.955 79.078C386.694 81.6799 386.44 84.0595 386.192 86.2169C385.944 88.3742 385.716 90.7146 385.507 93.238C384.973 99.2262 384.716 104.819 384.737 110.016C384.914 111.068 384.63 112.026 383.885 112.889C383.173 113.746 382.297 114.38 381.257 114.792C380.257 115.231 379.254 115.398 378.247 115.293C377.038 115.195 376.269 114.499 375.942 113.205C375.87 112.846 375.782 112.489 375.677 112.136C375.965 113.235 375.354 114.343 373.844 115.461C373.433 115.782 373.05 116.079 372.697 116.354C370.547 117.498 368.115 117.832 365.402 117.356C364.127 117.101 362.934 116.66 361.823 116.033C360.737 115.367 359.9 114.497 359.312 113.425C357.435 109.994 356.685 105.147 357.062 98.884C357.205 96.2037 357.509 93.5593 357.972 90.9509C358.435 88.3424 358.772 86.4563 358.981 85.2926C359.222 84.1224 359.402 83.3216 359.519 82.8901C359.63 82.4259 359.761 81.9748 359.911 81.5368C360.244 80.3142 360.568 79.4676 360.881 78.9968L361.361 78.3397C361.414 78.2612 361.473 78.2154 361.538 78.2023C361.597 78.1566 361.669 78.0912 361.754 78.0062C361.982 77.7904 362.237 77.6203 362.518 77.4961L363.175 77.2115L363.469 77.1526C364.391 76.832 365.247 76.8645 366.039 77.25C366.045 77.2827 366.081 77.2925 366.146 77.2794L366.607 77.544L366.784 77.6616L366.97 77.8283C366.977 77.861 366.98 77.8773 366.98 77.8773C367.013 77.8707 367.032 77.8838 367.039 77.9165L367.098 77.9557L367.117 78.0538C367.15 78.0472 367.17 78.0603 367.176 78.093L367.186 78.142C367.225 78.1681 367.261 78.1779 367.294 78.1714L367.304 78.2204C367.31 78.2531 367.314 78.2694 367.314 78.2694C367.346 78.2629 367.366 78.276 367.372 78.3086C367.372 78.3086 367.392 78.3217 367.431 78.3478L367.441 78.3969C367.448 78.4296 367.471 78.459 367.51 78.4851ZM375.373 110.872L375.343 110.724C375.317 110.764 375.327 110.898 375.373 111.127C375.353 111.028 375.357 110.96 375.383 110.921L375.373 110.872ZM393.218 74.0502C393.538 72.4223 394.312 71.7063 395.541 71.9021C395.724 71.1176 395.91 70.6044 396.1 70.3624C396.322 70.114 396.554 69.9145 396.796 69.7641C397.031 69.581 397.283 69.3946 397.551 69.205C397.819 69.0153 398.253 68.8093 398.855 68.5868C399.456 68.3644 400.133 68.1779 400.884 68.0274C401.63 67.8441 402.388 67.7262 403.159 67.6737C403.963 67.6147 404.66 67.6962 405.248 67.9183C406.673 68.4148 407.193 69.5684 406.808 71.3794C406.867 71.3336 406.857 71.3695 406.779 71.4872L406.504 72.409L406.25 72.919C406.119 73.1152 405.812 74.2135 405.329 76.214C404.904 77.6589 404.46 79.0906 403.996 80.5093C403.258 82.9348 402.821 84.4843 402.684 85.1576C403.703 84.3075 404.847 83.1436 406.115 81.6658C408.52 78.9065 410.072 77.2358 410.771 76.6538C411.47 76.0718 411.957 75.7023 412.232 75.5454C412.539 75.3819 412.846 75.3033 413.153 75.3098C413.454 75.2836 413.781 75.3031 414.134 75.3684L415.458 75.6131C416.295 75.7175 416.909 76.5803 417.302 78.2014C417.656 79.7964 417.571 81.0711 417.048 82.0257C414.846 86.4781 412.013 89.7312 408.549 91.7848C407.49 92.4388 406.386 93.034 405.235 93.5703C407.007 93.4195 408.886 94.2329 410.874 96.0105C412.489 97.4547 413.755 99.0201 414.67 100.706C415.619 102.386 416.345 103.635 416.848 104.452C417.345 105.236 417.607 105.863 417.633 106.334C417.699 106.831 417.493 107.246 417.016 107.58C416.578 107.939 415.777 108.355 414.614 108.826C414.078 109.035 412.803 108.61 410.789 107.552C409.913 107.081 408.978 106.572 407.984 106.023C406.984 105.441 405.993 104.909 405.013 104.425C402.744 103.282 401.211 102.756 400.413 102.848C400.348 102.861 400.211 102.855 400.001 102.828L399.561 105.211C399.319 106.382 399.074 107.62 398.826 108.928C398.604 110.196 398.262 111.37 397.798 112.449C396.922 113.338 395.801 113.851 394.435 113.989C392.866 114.133 391.728 113.715 391.022 112.735C390.492 111.787 390.436 108.705 390.853 103.488C391.107 99.8335 391.315 96.6302 391.478 93.878C391.641 91.1258 391.797 88.8508 391.947 87.053C392.09 85.2226 392.181 83.8105 392.22 82.8168C392.253 81.7905 392.291 80.7968 392.337 79.8359C392.467 77.6001 392.761 75.6715 393.218 74.0502ZM440.21 66.2704C441.439 66.6361 442.316 67.3615 442.839 68.4466C442.918 72.2381 443.06 76.0002 443.263 79.7329C443.461 83.4329 443.559 86.5577 443.56 89.1072C443.554 91.624 443.574 93.5067 443.621 94.7553C443.699 95.9974 443.745 97.246 443.759 98.5011L443.671 99.5896C443.677 99.9622 443.678 100.302 443.671 100.609C443.671 100.949 443.675 101.306 443.681 101.678C442.976 102.907 441.838 103.679 440.269 103.993C438.603 104.327 437.194 104.167 436.043 103.514C435.363 103.174 435.072 102.23 435.17 100.68C435.215 100.059 435.163 99.2879 435.012 98.3662C434.888 97.4052 434.796 96.6077 434.737 95.9736L434.717 95.8756C433.809 96.4315 433.021 97.0821 432.354 97.8276C431.681 98.5403 431.263 98.998 431.1 99.2007C430.93 99.3707 430.691 99.5375 430.384 99.701C430.07 99.8318 429.786 99.9398 429.531 100.025C428.917 100.182 428.511 100.365 428.315 100.574C427.1 104.353 425.78 106.589 424.355 107.283C423.467 107.767 422.532 108.022 421.551 108.048C420.577 108.107 419.714 107.702 418.962 106.833C417.72 106.062 417.445 103.329 418.136 98.6355C418.521 96.1447 419.174 93.1243 420.095 89.5744C421.042 85.9852 422.009 82.834 422.995 80.1208C425.125 74.289 427.728 69.2122 430.806 64.8903C431.375 64.5044 431.986 64.0761 432.639 63.6052C433.286 63.1017 433.95 62.7648 434.63 62.5947C435.342 62.418 436.094 62.3524 436.885 62.398C437.676 62.4435 438.372 62.61 438.974 62.8975C440.366 63.5705 440.779 64.6947 440.21 66.2704ZM432.301 81.2656C432.007 83.3641 431.684 85.3155 431.332 87.1199C430.973 88.8916 430.672 90.4475 430.431 91.7877L434.275 90.8649C434.117 88.7208 433.996 86.5864 433.91 84.4618C433.824 82.3373 433.723 80.216 433.604 78.0979L432.301 81.2656ZM432.941 91.336C433.399 91.2443 433.85 91.12 434.294 90.963L434.284 90.914C433.866 91.0317 433.48 91.143 433.127 91.2477C432.774 91.3524 432.712 91.3818 432.941 91.336ZM446.953 79.7079C447.168 77.3871 447.354 75.5991 447.511 74.3439C447.693 73.0495 447.886 71.8891 448.088 70.8627C448.291 69.8363 448.548 68.8328 448.862 67.8521C449.208 66.8649 449.603 65.9529 450.048 65.116C450.518 64.2399 451.054 63.5207 451.655 62.9583C452.257 62.3959 452.933 62.0395 453.685 61.8889C454.437 61.7384 455.28 61.8754 456.215 62.3001C458.177 65.3067 459.416 67.3361 459.933 68.3885C460.652 69.9441 461.473 72.1764 462.396 75.0852C462.54 74.2745 462.709 73.4247 462.905 72.5355C463.127 71.6072 463.333 70.6821 463.522 69.7603C464.103 67.4002 464.413 65.6384 464.452 64.4748C464.713 62.0428 465.857 60.0291 467.883 58.4335C469.647 57.0602 471.416 56.3831 473.187 56.4022C473.9 56.3955 474.429 56.5784 474.776 56.9509C475.155 57.3169 475.243 57.7581 475.041 58.2746C474.871 58.7846 474.861 59.2455 475.012 59.6573C475.188 60.0298 475.365 60.4874 475.542 61.0299C475.941 62.5138 475.948 63.9062 475.563 65.2072C475.171 66.4755 474.821 68.0413 474.515 69.9045C474.201 71.735 473.895 73.6831 473.594 75.749C473.327 77.8083 473.05 79.9035 472.763 82.0347C472.475 84.1659 472.169 86.1141 471.842 87.8792C471.157 91.9259 470.396 94.2371 469.559 94.8126C468.468 95.813 467.641 96.4376 467.079 96.6861C466.354 96.9674 465.291 97.1802 463.892 97.3244C463.03 97.4292 462.075 96.4815 461.028 94.4814C460.44 93.4095 459.795 91.8898 459.095 89.9223C457.865 86.4971 457.116 84.6244 456.848 84.3041C456.392 88.8149 455.997 91.6816 455.664 92.9042C455.364 94.1202 455.103 94.9374 454.88 95.3558C454.691 95.7677 454.459 96.3071 454.185 96.974C453.995 98.2357 453.156 99.3047 451.665 100.181C450.397 100.979 449.172 101.309 447.988 101.173C446.701 101.023 446.19 100.343 446.458 99.1333C446.032 95.1392 446.197 88.664 446.953 79.7079ZM495.436 53.578C495.756 51.9501 496.53 51.2341 497.759 51.4299C497.942 50.6454 498.128 50.1322 498.318 49.8902C498.54 49.6418 498.772 49.4423 499.014 49.2919C499.249 49.1088 499.501 48.9224 499.769 48.7328C500.037 48.5431 500.472 48.3371 501.073 48.1147C501.674 47.8922 502.351 47.7057 503.103 47.5552C503.848 47.3719 504.606 47.2541 505.377 47.2016C506.181 47.1425 506.878 47.224 507.466 47.4461C508.891 47.9426 509.411 49.0963 509.026 50.9072C509.085 50.8614 509.075 50.8973 508.997 51.015L508.722 51.9369L508.468 52.4468C508.337 52.643 508.03 53.7413 507.547 55.7418C507.122 57.1867 506.678 58.6184 506.214 60.0371C505.476 62.4626 505.039 64.0121 504.902 64.6854C505.921 63.8353 507.065 62.6714 508.333 61.1936C510.738 58.4343 512.29 56.7636 512.989 56.1816C513.688 55.5996 514.175 55.2301 514.45 55.0732C514.757 54.9097 515.064 54.8311 515.372 54.8376C515.672 54.8114 515.999 54.8309 516.352 54.8962L517.676 55.141C518.513 55.2453 519.128 56.1081 519.52 57.7292C519.874 59.3242 519.789 60.599 519.266 61.5535C517.064 66.006 514.231 69.259 510.767 71.3126C509.708 71.9666 508.604 72.5618 507.453 73.0981C509.225 72.9473 511.105 73.7607 513.092 75.5383C514.707 76.9826 515.973 78.5479 516.889 80.2342C517.837 81.914 518.563 83.1624 519.066 83.9795C519.563 84.7638 519.825 85.3913 519.851 85.862C519.917 86.3588 519.711 86.7739 519.234 87.1075C518.796 87.4671 517.995 87.8825 516.832 88.3534C516.296 88.5628 515.021 88.1382 513.007 87.0797C512.131 86.6093 511.196 86.0996 510.202 85.5508C509.202 84.9692 508.212 84.4367 507.231 83.9532C504.962 82.8098 503.429 82.284 502.631 82.3757C502.566 82.3888 502.429 82.3823 502.22 82.3562L501.779 84.7392C501.537 85.9094 501.293 87.1482 501.045 88.4557C500.823 89.724 500.48 90.8975 500.016 91.9763C499.14 92.8656 498.019 93.3791 496.653 93.5167C495.084 93.661 493.946 93.2429 493.24 92.2625C492.71 91.3147 492.654 88.2325 493.071 83.0157C493.325 79.3613 493.533 76.158 493.696 73.4058C493.859 70.6536 494.015 68.3786 494.165 66.5808C494.308 64.7504 494.399 63.3383 494.438 62.3447C494.471 61.3183 494.51 60.3246 494.555 59.3637C494.685 57.1279 494.979 55.1993 495.436 53.578ZM542.428 45.7982C543.657 46.1639 544.534 46.8893 545.057 47.9744C545.136 51.7659 545.278 55.528 545.482 59.2607C545.679 62.9607 545.778 66.0855 545.778 68.635C545.772 71.1518 545.793 73.0345 545.839 74.2831C545.917 75.5252 545.964 76.7738 545.977 78.0289L545.889 79.1174C545.896 79.49 545.896 79.8299 545.889 80.1372C545.889 80.4771 545.893 80.8334 545.899 81.206C545.194 82.4352 544.056 83.2069 542.488 83.5211C540.821 83.8549 539.412 83.6952 538.261 83.0418C537.581 82.702 537.29 81.7575 537.388 80.2081C537.433 79.5871 537.381 78.8157 537.23 77.894C537.106 76.933 537.014 76.1355 536.955 75.5014L536.935 75.4034C536.027 75.9593 535.239 76.61 534.573 77.3554C533.899 78.0681 533.481 78.5258 533.318 78.7285C533.148 78.8985 532.909 79.0653 532.602 79.2288C532.288 79.3596 532.004 79.4676 531.749 79.5526C531.135 79.7097 530.729 79.8928 530.533 80.1021C529.318 83.8809 527.999 86.117 526.574 86.8103C525.685 87.2943 524.75 87.5495 523.769 87.5759C522.795 87.635 521.932 87.23 521.18 86.3607C519.938 85.5896 519.663 82.8572 520.354 78.1633C520.739 75.6725 521.392 72.6521 522.313 69.1022C523.26 65.513 524.227 62.3618 525.213 59.6486C527.343 53.8168 529.946 48.74 533.024 44.4181C533.593 44.0322 534.204 43.6039 534.858 43.133C535.505 42.6295 536.168 42.2926 536.848 42.1225C537.56 41.9458 538.312 41.8802 539.103 41.9258C539.894 41.9713 540.59 42.1378 541.192 42.4253C542.585 43.0983 542.997 44.2226 542.428 45.7982ZM534.519 60.7934C534.226 62.8919 533.902 64.8433 533.55 66.6477C533.191 68.4194 532.891 69.9753 532.649 71.3155L536.493 70.3927C536.335 68.2486 536.214 66.1142 536.128 63.9896C536.043 61.8651 535.941 59.7438 535.822 57.6258L534.519 60.7934ZM535.159 70.8638C535.617 70.7721 536.068 70.6478 536.512 70.4908L536.502 70.4418C536.084 70.5595 535.698 70.6708 535.345 70.7755C534.993 70.8802 534.93 70.9096 535.159 70.8638ZM561.747 39.2775C562.25 40.0945 562.548 40.6468 562.639 40.9344C562.829 41.5423 562.705 42.1111 562.267 42.6407C562.274 42.6734 562.251 42.729 562.199 42.8075C562.8 44.2847 563.154 45.7097 563.259 47.0825C563.364 48.4553 563.41 49.7889 563.397 51.0832C564.56 47.7228 565.523 45.2351 566.288 43.6202C567.862 40.2793 569.457 37.8013 571.071 36.1862C571.62 35.7023 572.32 35.2902 573.169 34.9501C574.045 34.5707 574.905 34.3645 575.748 34.3316C576.591 34.2987 577.327 34.4913 577.954 34.9095C578.615 35.3212 579.017 36.0565 579.161 37.1155C579.523 43.6722 579.733 49.8172 579.794 55.5503C579.848 61.2507 579.542 66.7682 578.876 72.1027L578.896 72.2008L578.847 72.2106C578.69 73.4658 577.877 74.4956 576.406 75.3001C574.962 76.0653 573.596 76.3729 572.308 76.2229C570.752 76.0926 569.925 75.4424 569.826 74.2722L569.649 73.1348L569.63 73.0368C569.603 72.2262 569.564 71.6901 569.512 71.4286C569.485 71.1279 569.476 70.9089 569.482 70.7717C569.377 69.9088 569.351 69.0982 569.403 68.3398C569.481 67.5423 569.524 66.9049 569.53 66.4277C569.536 65.9505 569.549 65.5059 569.569 65.0941C569.582 64.6495 569.582 64.3096 569.569 64.0743C568.667 66.0226 567.991 67.2289 567.54 67.6932C566.416 68.8702 564.981 69.5994 563.236 69.881C562.144 70.0317 561.474 69.9109 561.225 69.5187C560.715 68.669 560.378 68.1756 560.215 68.0383C559.966 67.8161 559.715 67.4076 559.46 66.8128C559.363 70.7417 559.063 73.5724 558.56 75.3049C558.357 75.9913 558.142 76.6124 557.913 77.1682C557.671 78.3384 556.776 79.2996 555.227 80.0518C553.776 80.7843 552.299 81.0462 550.795 80.8374C549.265 80.6679 548.415 79.9882 548.245 78.7985C548.075 77.6088 548.025 76.0889 548.097 74.2389C548.129 72.3627 548.223 70.3721 548.379 68.267C548.783 61.6251 549.138 57.2876 549.445 55.2545C549.784 53.2148 550.091 51.6065 550.365 50.4297C551.038 47.6774 551.717 45.6376 552.403 44.3104C553.004 42.0483 554.438 40.4692 556.707 39.573C558.498 38.8404 560.178 38.7419 561.747 39.2775ZM597.645 34.8414C597.214 38.6331 596.797 42.0653 596.392 45.1379C596.021 48.2039 595.668 51.0281 595.336 53.6104C595.036 56.1861 594.749 58.5723 594.475 60.7688C594.194 62.9327 593.946 65.0051 593.731 66.9859C593.836 69.2085 593.078 70.9411 591.458 72.1836C590.51 72.8834 589.317 73.3772 587.879 73.6653C586.441 73.9533 585.329 74.0059 584.545 73.823C583.767 73.6729 583.221 73.3233 582.907 72.7743C582.56 72.2318 582.42 71.5291 582.485 70.6661C582.511 69.7771 582.641 68.5611 582.876 67.0183C583.105 65.4427 583.362 63.3344 583.649 60.6933C583.969 58.0457 584.314 55.3588 584.686 52.6327C585.6 45.8206 586.448 41.0613 587.232 38.3547C587.539 37.3414 587.908 36.6385 588.34 36.2462C588.764 35.8211 589.192 35.4974 589.624 35.275C590.049 35.02 590.438 34.7551 590.79 34.4805C591.143 34.2058 591.388 33.6468 591.525 32.8035C591.695 31.9536 592.159 31.2997 592.917 30.8419C593.708 30.3776 594.489 30.2041 595.261 30.3216C596.058 30.3998 596.719 30.8115 597.242 31.5566C597.791 32.2625 597.926 33.3574 597.645 34.8414ZM632.831 25.4997C633.04 25.8657 633.243 26.1141 633.439 26.2448C633.629 26.3428 633.763 26.4179 633.841 26.4702C634.037 26.6009 634.015 26.9114 633.773 27.4018C633.597 28.049 633.325 28.8172 632.96 29.7063C632.293 31.3016 631.895 32.4523 631.764 33.1583C630.961 36.1068 630.409 38.7839 630.109 41.1897C629.803 43.5628 629.568 45.7005 629.405 47.6029C629.242 49.5053 629.053 51.1919 628.838 52.6628C628.57 54.3822 628.123 55.7126 627.495 56.6542C627.234 57.3864 626.62 57.9684 625.652 58.4001C624.685 58.8318 623.665 59.087 622.593 59.1658C621.514 59.2118 620.547 59.0487 619.69 58.6763C618.867 58.2973 618.468 57.6633 618.494 56.7743C618.238 53.6299 618.26 50.9399 618.56 48.7041C618.893 46.4617 619.183 44.6018 619.431 43.1243C619.712 41.6403 619.94 40.3197 620.117 39.1626C620.286 37.9728 620.456 36.9529 620.626 36.103C620.821 35.2139 621.06 34.2823 621.341 33.3082C621.615 32.3014 621.922 31.288 622.262 30.2682C622.627 29.209 623.01 28.2316 623.408 27.3359C624.323 25.283 625.189 24.0047 626.006 23.5011C626.816 22.9649 627.656 22.5757 628.525 22.3336C629.427 22.0849 630.232 22.0259 630.938 22.1564C631.676 22.2804 632.235 22.6104 632.615 23.1464C632.994 23.6823 633.066 24.4667 632.831 25.4997ZM628.517 64.8123C628.426 66.2244 627.874 67.3718 626.861 68.2546C625.887 69.1635 624.766 69.762 623.498 70.05C622.236 70.3706 620.994 70.3644 619.772 70.0314C618.589 69.7244 617.752 69.0252 617.261 67.9336C616.744 66.8813 616.718 65.9007 617.182 64.9919C617.672 64.0439 618.335 63.3671 619.172 62.9615C620.002 62.5233 620.995 62.1374 622.152 61.8037C623.342 61.4634 624.45 61.3095 625.476 61.3419C626.503 61.3743 627.34 61.6486 627.987 62.1649C628.634 62.6812 628.811 63.5636 628.517 64.8123ZM650.977 21.8655C651.186 22.2315 651.389 22.4799 651.585 22.6106C651.774 22.7086 651.908 22.7837 651.987 22.836C652.183 22.9667 652.16 23.2772 651.918 23.7676C651.742 24.4148 651.471 25.183 651.105 26.0722C650.439 27.6674 650.04 28.8181 649.91 29.5241C649.106 32.4726 648.555 35.1498 648.255 37.5555C647.948 39.9286 647.713 42.0664 647.55 43.9687C647.388 45.8711 647.198 47.5577 646.983 49.0287C646.715 50.748 646.268 52.0785 645.641 53.02C645.379 53.7522 644.765 54.3342 643.798 54.7659C642.83 55.1976 641.811 55.4529 640.738 55.5316C639.66 55.5777 638.692 55.4145 637.836 55.0421C637.012 54.6632 636.613 54.0292 636.639 53.1401C636.383 49.9958 636.405 47.3057 636.705 45.0699C637.038 42.8275 637.329 40.9676 637.577 39.4902C637.857 38.0061 638.086 36.6856 638.262 35.5284C638.432 34.3386 638.601 33.3188 638.771 32.4689C638.967 31.5798 639.205 30.6481 639.486 29.674C639.76 28.6672 640.067 27.6539 640.407 26.634C640.773 25.5749 641.155 24.5974 641.554 23.7017C642.468 21.6488 643.334 20.3705 644.151 19.867C644.962 19.3307 645.802 18.9415 646.671 18.6994C647.573 18.4507 648.377 18.3917 649.083 18.5222C649.822 18.6463 650.381 18.9762 650.76 19.5122C651.139 20.0481 651.212 20.8326 650.977 21.8655ZM646.663 61.1782C646.572 62.5902 646.019 63.7376 645.006 64.6204C644.033 65.5294 642.912 66.1278 641.644 66.4158C640.382 66.7365 639.14 66.7303 637.917 66.3972C636.734 66.0903 635.897 65.391 635.406 64.2994C634.89 63.2471 634.863 62.2665 635.327 61.3577C635.817 60.4097 636.481 59.7329 637.317 59.3274C638.147 58.8892 639.141 58.5032 640.298 58.1695C641.488 57.8292 642.596 57.6753 643.622 57.7077C644.648 57.7401 645.485 58.0145 646.132 58.5307C646.78 59.047 646.957 59.9295 646.663 61.1782Z" fill="#0B0253"/>
</svg>
