<svg width="44" height="44" viewBox="0 0 44 44" fill="none" xmlns="http://www.w3.org/2000/svg">
<path d="M36.1568 7.04126C35.9991 6.8279 35.798 6.65043 35.5667 6.52056C35.3354 6.3907 35.0791 6.31139 34.8149 6.28788L12.4129 4.19037C12.149 4.16576 11.8829 4.19738 11.6321 4.28313C11.3814 4.36888 11.1516 4.50682 10.958 4.68785C10.7645 4.86889 10.6115 5.0889 10.5092 5.33338C10.4068 5.57786 10.3575 5.84125 10.3644 6.10619L11.1546 36.4683C11.1763 37.2313 11.4765 37.9599 11.9985 38.5167C12.5206 39.0736 13.2283 39.4201 13.9883 39.491L26.7139 40.6825C27.475 40.7538 28.2359 40.5437 28.8525 40.0919C29.4692 39.64 29.8988 38.9779 30.0602 38.2306L36.4721 8.55067C36.5296 8.2911 36.5312 8.02228 36.4768 7.76204C36.4224 7.50181 36.3133 7.25611 36.1568 7.04126ZM32.3605 9.82448L31.8287 12.2856L14.2338 10.6382L14.1682 8.12112L32.3605 9.82448ZM26.5112 36.8971L14.8902 35.809L14.3323 14.4138L31.0311 15.9773L26.5112 36.8971Z" fill="#3D91FF"/>
</svg>
