<svg width="40" height="40" viewBox="0 0 40 40" fill="none" xmlns="http://www.w3.org/2000/svg">
<path d="M37.9938 10.7579C37.8277 10.2438 37.5121 9.79091 37.0874 9.45696C36.6628 9.123 36.1482 8.92314 35.6095 8.88289L30.2157 8.45789L28.1438 3.5407C27.9335 3.04673 27.5826 2.62551 27.1348 2.32943C26.687 2.03335 26.1619 1.87549 25.6251 1.87549C25.0882 1.87549 24.5632 2.03335 24.1154 2.32943C23.6675 2.62551 23.3166 3.04673 23.1063 3.5407L21.0345 8.45164L15.6423 8.87664C15.1044 8.91693 14.5906 9.11642 14.1665 9.44968C13.7423 9.78295 13.427 10.2349 13.2606 10.748C13.0942 11.2611 13.0843 11.8122 13.2321 12.3309C13.3799 12.8497 13.6788 13.3127 14.0907 13.661L18.1798 17.1141L16.9298 22.2704C16.8052 22.7933 16.8378 23.3413 17.0235 23.8457C17.2093 24.3501 17.5399 24.7884 17.9739 25.1055C18.4079 25.4227 18.9259 25.6045 19.4629 25.6283C19.9999 25.6521 20.532 25.5167 20.9923 25.2391L25.6251 22.4469L30.2485 25.2298C30.7088 25.5073 31.2409 25.6427 31.7779 25.6189C32.3149 25.5952 32.8329 25.4133 33.2669 25.0961C33.7008 24.779 34.0315 24.3407 34.2172 23.8363C34.403 23.3319 34.4356 22.7839 34.311 22.261L33.061 17.1048L37.1501 13.6516C37.5622 13.3076 37.8625 12.8486 38.0127 12.3333C38.163 11.8179 38.1564 11.2695 37.9938 10.7579ZM29.7657 15.0001C29.4995 15.2248 29.3012 15.5193 29.193 15.8505C29.0848 16.1817 29.071 16.5365 29.1532 16.8751L30.0907 20.7673L26.5891 18.6579C26.2968 18.4831 25.9626 18.3907 25.622 18.3907C25.2813 18.3907 24.9471 18.4831 24.6548 18.6579L21.1532 20.7673L22.0907 16.8751C22.1727 16.5364 22.1587 16.1815 22.0502 15.8503C21.9418 15.5191 21.7431 15.2247 21.4766 15.0001L18.4376 12.4188L22.4735 12.1063C22.8161 12.0792 23.1446 11.9585 23.4232 11.7573C23.7017 11.5562 23.9197 11.2823 24.0532 10.9657L25.6251 7.21882L27.2048 10.9594C27.3383 11.2761 27.5562 11.5499 27.8348 11.7511C28.1134 11.9522 28.4419 12.073 28.7845 12.1001L32.8188 12.4126L29.7657 15.0001ZM5.0782 28.8313C4.72596 29.1836 4.24822 29.3815 3.75008 29.3815C3.25194 29.3815 2.77419 29.1836 2.42195 28.8313C2.06971 28.4791 1.87183 28.0013 1.87183 27.5032C1.87183 27.0051 2.06971 26.5273 2.42195 26.1751L10.5095 18.0891C10.8617 17.7369 11.3394 17.539 11.8376 17.539C12.3357 17.539 12.8135 17.7369 13.1657 18.0891C13.5179 18.4414 13.7158 18.9191 13.7158 19.4173C13.7158 19.9154 13.5179 20.3931 13.1657 20.7454L5.0782 28.8313ZM15.0141 27.4923C15.1889 27.6665 15.3276 27.8734 15.4223 28.1014C15.5169 28.3293 15.5656 28.5736 15.5656 28.8204C15.5656 29.0672 15.5169 29.3115 15.4223 29.5394C15.3276 29.7673 15.1889 29.9743 15.0141 30.1485L7.5782 37.586C7.40379 37.7604 7.19673 37.8988 6.96885 37.9932C6.74097 38.0876 6.49673 38.1361 6.25008 38.1361C6.00342 38.1361 5.75918 38.0876 5.5313 37.9932C5.30342 37.8988 5.09637 37.7604 4.92195 37.586C4.74754 37.4116 4.60919 37.2045 4.5148 36.9767C4.42041 36.7488 4.37183 36.5045 4.37183 36.2579C4.37183 36.0112 4.42041 35.767 4.5148 35.5391C4.60919 35.3112 4.74754 35.1042 4.92195 34.9298L12.3595 27.4938C12.5332 27.3191 12.7396 27.1803 12.967 27.0854C13.1944 26.9905 13.4383 26.9414 13.6847 26.9408C13.9311 26.9402 14.1752 26.9882 14.4031 27.082C14.6309 27.1758 14.838 27.3137 15.0126 27.4876L15.0141 27.4923ZM24.7704 28.986C24.9452 29.1602 25.0839 29.3672 25.1785 29.5951C25.2732 29.823 25.3219 30.0674 25.3219 30.3141C25.3219 30.5609 25.2732 30.8053 25.1785 31.0332C25.0839 31.2611 24.9452 31.4681 24.7704 31.6423L18.8329 37.5798C18.4806 37.932 18.0029 38.1299 17.5048 38.1299C17.0066 38.1299 16.5289 37.932 16.1766 37.5798C15.8244 37.2275 15.6265 36.7498 15.6265 36.2516C15.6265 35.7535 15.8244 35.2757 16.1766 34.9235L22.1141 28.986C22.288 28.8111 22.4946 28.6723 22.7222 28.5774C22.9498 28.4825 23.1939 28.4334 23.4405 28.433C23.6871 28.4325 23.9314 28.4807 24.1593 28.5748C24.3872 28.6689 24.5944 28.8071 24.7688 28.9813L24.7704 28.986Z" fill="#3D91FF"/>
</svg>
