<svg width="40" height="40" viewBox="0 0 40 40" fill="none" xmlns="http://www.w3.org/2000/svg">
<path d="M31.0938 19.5797L23.3001 16.7062L20.4204 8.90625C20.2002 8.30903 19.8022 7.79368 19.28 7.42968C18.7578 7.06567 18.1366 6.87052 17.5001 6.87052C16.8636 6.87052 16.2423 7.06567 15.7202 7.42968C15.198 7.79368 14.8 8.30903 14.5798 8.90625L11.7063 16.7062L3.90634 19.5797C3.30912 19.7999 2.79377 20.1979 2.42976 20.7201C2.06576 21.2423 1.87061 21.8635 1.87061 22.5C1.87061 23.1365 2.06576 23.7577 2.42976 24.2799C2.79377 24.8021 3.30912 25.2001 3.90634 25.4203L11.7001 28.2938L14.5798 36.0938C14.8 36.691 15.198 37.2063 15.7202 37.5703C16.2423 37.9343 16.8636 38.1295 17.5001 38.1295C18.1366 38.1295 18.7578 37.9343 19.28 37.5703C19.8022 37.2063 20.2002 36.691 20.4204 36.0938L23.2938 28.3L31.0938 25.4203C31.6911 25.2001 32.2064 24.8021 32.5704 24.2799C32.9344 23.7577 33.1296 23.1365 33.1296 22.5C33.1296 21.8635 32.9344 21.2423 32.5704 20.7201C32.2064 20.1979 31.6911 19.7999 31.0938 19.5797ZM21.1907 25.0734C20.9362 25.1672 20.7051 25.3151 20.5133 25.5069C20.3215 25.6987 20.1736 25.9299 20.0798 26.1844L17.5001 33.1688L14.9266 26.1844C14.8329 25.9299 14.6849 25.6987 14.4932 25.5069C14.3014 25.3151 14.0702 25.1672 13.8157 25.0734L6.83134 22.5L13.8157 19.9266C14.0702 19.8328 14.3014 19.6849 14.4932 19.4931C14.6849 19.3013 14.8329 19.0701 14.9266 18.8156L17.5001 11.8313L20.0735 18.8156C20.1673 19.0701 20.3152 19.3013 20.507 19.4931C20.6988 19.6849 20.93 19.8328 21.1845 19.9266L28.1688 22.5L21.1907 25.0734ZM21.8751 6.25C21.8751 5.75272 22.0726 5.27581 22.4243 4.92417C22.7759 4.57254 23.2528 4.375 23.7501 4.375H25.6251V2.5C25.6251 2.00272 25.8226 1.52581 26.1743 1.17417C26.5259 0.822544 27.0028 0.625 27.5001 0.625C27.9974 0.625 28.4743 0.822544 28.8259 1.17417C29.1775 1.52581 29.3751 2.00272 29.3751 2.5V4.375H31.2501C31.7474 4.375 32.2243 4.57254 32.5759 4.92417C32.9275 5.27581 33.1251 5.75272 33.1251 6.25C33.1251 6.74728 32.9275 7.22419 32.5759 7.57583C32.2243 7.92746 31.7474 8.125 31.2501 8.125H29.3751V10C29.3751 10.4973 29.1775 10.9742 28.8259 11.3258C28.4743 11.6775 27.9974 11.875 27.5001 11.875C27.0028 11.875 26.5259 11.6775 26.1743 11.3258C25.8226 10.9742 25.6251 10.4973 25.6251 10V8.125H23.7501C23.2528 8.125 22.7759 7.92746 22.4243 7.57583C22.0726 7.22419 21.8751 6.74728 21.8751 6.25ZM39.3751 13.75C39.3751 14.2473 39.1775 14.7242 38.8259 15.0758C38.4743 15.4275 37.9974 15.625 37.5001 15.625H36.8751V16.25C36.8751 16.7473 36.6775 17.2242 36.3259 17.5758C35.9743 17.9275 35.4974 18.125 35.0001 18.125C34.5028 18.125 34.0259 17.9275 33.6743 17.5758C33.3226 17.2242 33.1251 16.7473 33.1251 16.25V15.625H32.5001C32.0028 15.625 31.5259 15.4275 31.1743 15.0758C30.8226 14.7242 30.6251 14.2473 30.6251 13.75C30.6251 13.2527 30.8226 12.7758 31.1743 12.4242C31.5259 12.0725 32.0028 11.875 32.5001 11.875H33.1251V11.25C33.1251 10.7527 33.3226 10.2758 33.6743 9.92417C34.0259 9.57254 34.5028 9.375 35.0001 9.375C35.4974 9.375 35.9743 9.57254 36.3259 9.92417C36.6775 10.2758 36.8751 10.7527 36.8751 11.25V11.875H37.5001C37.9974 11.875 38.4743 12.0725 38.8259 12.4242C39.1775 12.7758 39.3751 13.2527 39.3751 13.75Z" fill="#3D91FF"/>
</svg>
